<mxfile host="app.diagrams.net" modified="2023-07-13T10:31:03.966Z" agent="Mozilla/5.0 (X11; Linux x86_64) AppleWebKit/537.36 (KHTML, like Gecko) Chrome/111.0.0.0 Safari/537.36" etag="a6GDCn5Cllzwj3ZluqFT" version="21.6.2" type="google">
  <diagram name="Page-1" id="Sfyq2Sj_Z1V3es1mOQpQ">
    <mxGraphModel grid="1" page="1" gridSize="10" guides="1" tooltips="1" connect="1" arrows="1" fold="1" pageScale="1" pageWidth="1200" pageHeight="1600" math="0" shadow="0">
      <root>
        <mxCell id="0" />
        <mxCell id="1" parent="0" />
        <mxCell id="6G9ahUbNiyrmslpl5jez-1" value="" style="shape=umlLifeline;perimeter=lifelinePerimeter;whiteSpace=wrap;html=1;container=1;dropTarget=0;collapsible=0;recursiveResize=0;outlineConnect=0;portConstraint=eastwest;newEdgeStyle={&quot;edgeStyle&quot;:&quot;elbowEdgeStyle&quot;,&quot;elbow&quot;:&quot;vertical&quot;,&quot;curved&quot;:0,&quot;rounded&quot;:0};participant=umlActor;labelBackgroundColor=none;fillColor=#F5AB50;strokeColor=#909090;fontColor=#1A1A1A;" vertex="1" parent="1">
          <mxGeometry x="90" y="60" width="20" height="840" as="geometry" />
        </mxCell>
        <mxCell id="6G9ahUbNiyrmslpl5jez-2" value="Initiate keygen" style="text;html=1;strokeColor=none;fillColor=none;align=center;verticalAlign=middle;whiteSpace=wrap;rounded=0;labelBackgroundColor=none;fontColor=#1A1A1A;" vertex="1" parent="1">
          <mxGeometry x="70" y="20" width="60" height="30" as="geometry" />
        </mxCell>
        <mxCell id="6G9ahUbNiyrmslpl5jez-3" value="Keygen example&lt;br&gt;&lt;font style=&quot;font-size: 8px;&quot;&gt;examples/gg20_keygen&lt;/font&gt;" style="text;html=1;align=center;verticalAlign=middle;resizable=0;points=[];autosize=1;strokeColor=none;fillColor=none;labelBackgroundColor=none;fontColor=#1A1A1A;" vertex="1" parent="1">
          <mxGeometry x="160" y="15" width="110" height="40" as="geometry" />
        </mxCell>
        <mxCell id="6G9ahUbNiyrmslpl5jez-4" value="" style="shape=umlLifeline;perimeter=lifelinePerimeter;whiteSpace=wrap;html=1;container=1;dropTarget=0;collapsible=0;recursiveResize=0;outlineConnect=0;portConstraint=eastwest;newEdgeStyle={&quot;edgeStyle&quot;:&quot;elbowEdgeStyle&quot;,&quot;elbow&quot;:&quot;vertical&quot;,&quot;curved&quot;:0,&quot;rounded&quot;:0};participant=umlEntity;labelBackgroundColor=none;fillColor=#F5AB50;strokeColor=#909090;fontColor=#1A1A1A;" vertex="1" parent="1">
          <mxGeometry x="195" y="60" width="40" height="830" as="geometry" />
        </mxCell>
        <mxCell id="6G9ahUbNiyrmslpl5jez-5" value="" style="html=1;points=[];perimeter=orthogonalPerimeter;outlineConnect=0;targetShapes=umlLifeline;portConstraint=eastwest;newEdgeStyle={&quot;edgeStyle&quot;:&quot;elbowEdgeStyle&quot;,&quot;elbow&quot;:&quot;vertical&quot;,&quot;curved&quot;:0,&quot;rounded&quot;:0};labelBackgroundColor=none;fillColor=#F5AB50;strokeColor=#909090;fontColor=#1A1A1A;" vertex="1" parent="6G9ahUbNiyrmslpl5jez-4">
          <mxGeometry x="15" y="60" width="10" height="770" as="geometry" />
        </mxCell>
        <mxCell id="6G9ahUbNiyrmslpl5jez-7" value="" style="edgeStyle=none;orthogonalLoop=1;jettySize=auto;html=1;rounded=0;labelBackgroundColor=none;fontColor=default;strokeColor=#182E3E;" edge="1" parent="6G9ahUbNiyrmslpl5jez-4" source="6G9ahUbNiyrmslpl5jez-5" target="6G9ahUbNiyrmslpl5jez-5">
          <mxGeometry width="80" relative="1" as="geometry">
            <mxPoint x="150" y="90" as="sourcePoint" />
            <mxPoint x="150" y="110" as="targetPoint" />
            <Array as="points">
              <mxPoint x="105" y="90" />
              <mxPoint x="105" y="110" />
            </Array>
          </mxGeometry>
        </mxCell>
        <mxCell id="6G9ahUbNiyrmslpl5jez-8" value="&lt;span style=&quot;font-size: 10px;&quot;&gt;creates incoming stream&lt;/span&gt;" style="edgeLabel;html=1;align=center;verticalAlign=middle;resizable=0;points=[];labelBackgroundColor=none;fontColor=#1A1A1A;fontSize=10;" vertex="1" connectable="0" parent="6G9ahUbNiyrmslpl5jez-7">
          <mxGeometry x="-0.6935" y="-1" relative="1" as="geometry">
            <mxPoint x="32" y="-11" as="offset" />
          </mxGeometry>
        </mxCell>
        <mxCell id="6G9ahUbNiyrmslpl5jez-9" value="" style="edgeStyle=none;orthogonalLoop=1;jettySize=auto;html=1;rounded=0;labelBackgroundColor=none;fontColor=default;strokeColor=#182E3E;" edge="1" parent="6G9ahUbNiyrmslpl5jez-4" source="6G9ahUbNiyrmslpl5jez-5" target="6G9ahUbNiyrmslpl5jez-5">
          <mxGeometry width="80" relative="1" as="geometry">
            <mxPoint x="40" y="130" as="sourcePoint" />
            <mxPoint x="40" y="150" as="targetPoint" />
            <Array as="points">
              <mxPoint x="105" y="130" />
              <mxPoint x="105" y="150" />
            </Array>
          </mxGeometry>
        </mxCell>
        <mxCell id="6G9ahUbNiyrmslpl5jez-10" value="&lt;span style=&quot;font-size: 10px;&quot;&gt;creates outgoing sink&lt;/span&gt;" style="edgeLabel;html=1;align=center;verticalAlign=middle;resizable=0;points=[];labelBackgroundColor=none;fontColor=#1A1A1A;fontSize=10;" vertex="1" connectable="0" parent="6G9ahUbNiyrmslpl5jez-9">
          <mxGeometry x="-0.6935" y="-1" relative="1" as="geometry">
            <mxPoint x="22" y="-11" as="offset" />
          </mxGeometry>
        </mxCell>
        <mxCell id="6G9ahUbNiyrmslpl5jez-6" value="&lt;span style=&quot;font-size: 10px;&quot;&gt;Starts&lt;/span&gt;" style="html=1;verticalAlign=bottom;endArrow=block;edgeStyle=elbowEdgeStyle;elbow=vertical;curved=0;rounded=0;labelBackgroundColor=none;fontColor=default;strokeColor=#182E3E;" edge="1" parent="1" source="6G9ahUbNiyrmslpl5jez-1" target="6G9ahUbNiyrmslpl5jez-5">
          <mxGeometry x="-0.6042" width="80" relative="1" as="geometry">
            <mxPoint x="130" y="120" as="sourcePoint" />
            <mxPoint x="225" y="120" as="targetPoint" />
            <mxPoint as="offset" />
            <Array as="points">
              <mxPoint x="160" y="130" />
            </Array>
          </mxGeometry>
        </mxCell>
        <mxCell id="6G9ahUbNiyrmslpl5jez-11" value="" style="shape=umlLifeline;perimeter=lifelinePerimeter;whiteSpace=wrap;html=1;container=1;dropTarget=0;collapsible=0;recursiveResize=0;outlineConnect=0;portConstraint=eastwest;newEdgeStyle={&quot;edgeStyle&quot;:&quot;elbowEdgeStyle&quot;,&quot;elbow&quot;:&quot;vertical&quot;,&quot;curved&quot;:0,&quot;rounded&quot;:0};participant=umlEntity;labelBackgroundColor=none;fillColor=#F5AB50;strokeColor=#909090;fontColor=#1A1A1A;" vertex="1" parent="1">
          <mxGeometry x="350" y="55" width="40" height="835" as="geometry" />
        </mxCell>
        <mxCell id="6G9ahUbNiyrmslpl5jez-12" value="" style="html=1;points=[];perimeter=orthogonalPerimeter;outlineConnect=0;targetShapes=umlLifeline;portConstraint=eastwest;newEdgeStyle={&quot;edgeStyle&quot;:&quot;elbowEdgeStyle&quot;,&quot;elbow&quot;:&quot;vertical&quot;,&quot;curved&quot;:0,&quot;rounded&quot;:0};labelBackgroundColor=none;fillColor=#F5AB50;strokeColor=#909090;fontColor=#1A1A1A;" vertex="1" parent="6G9ahUbNiyrmslpl5jez-11">
          <mxGeometry x="15" y="180" width="10" height="650" as="geometry" />
        </mxCell>
        <mxCell id="6G9ahUbNiyrmslpl5jez-65" value="" style="edgeStyle=none;orthogonalLoop=1;jettySize=auto;html=1;rounded=0;labelBackgroundColor=none;strokeColor=#182E3E;fontColor=default;" edge="1" parent="6G9ahUbNiyrmslpl5jez-11" source="6G9ahUbNiyrmslpl5jez-12" target="6G9ahUbNiyrmslpl5jez-12">
          <mxGeometry width="80" relative="1" as="geometry">
            <mxPoint x="35" y="465" as="sourcePoint" />
            <mxPoint x="35" y="475" as="targetPoint" />
            <Array as="points">
              <mxPoint x="130" y="465" />
              <mxPoint x="130" y="475" />
            </Array>
          </mxGeometry>
        </mxCell>
        <mxCell id="6G9ahUbNiyrmslpl5jez-66" value="send out msgs to other parties" style="edgeLabel;html=1;align=center;verticalAlign=middle;resizable=0;points=[];fontSize=10;labelBackgroundColor=none;fontColor=#1A1A1A;" vertex="1" connectable="0" parent="6G9ahUbNiyrmslpl5jez-65">
          <mxGeometry x="-0.5418" y="4" relative="1" as="geometry">
            <mxPoint x="24" y="-6" as="offset" />
          </mxGeometry>
        </mxCell>
        <mxCell id="6G9ahUbNiyrmslpl5jez-91" value="" style="edgeStyle=none;orthogonalLoop=1;jettySize=auto;html=1;rounded=0;labelBackgroundColor=none;strokeColor=#182E3E;fontColor=default;" edge="1" parent="6G9ahUbNiyrmslpl5jez-11" source="6G9ahUbNiyrmslpl5jez-12" target="6G9ahUbNiyrmslpl5jez-12">
          <mxGeometry width="80" relative="1" as="geometry">
            <mxPoint x="48" y="665" as="sourcePoint" />
            <mxPoint x="48" y="675" as="targetPoint" />
            <Array as="points">
              <mxPoint x="110" y="665" />
              <mxPoint x="110" y="675" />
            </Array>
          </mxGeometry>
        </mxCell>
        <mxCell id="6G9ahUbNiyrmslpl5jez-92" value="send out msgs to other parties" style="edgeLabel;html=1;align=center;verticalAlign=middle;resizable=0;points=[];fontSize=10;labelBackgroundColor=none;fontColor=#1A1A1A;" vertex="1" connectable="0" parent="6G9ahUbNiyrmslpl5jez-91">
          <mxGeometry x="-0.5418" y="4" relative="1" as="geometry">
            <mxPoint x="29" y="-6" as="offset" />
          </mxGeometry>
        </mxCell>
        <mxCell id="6G9ahUbNiyrmslpl5jez-101" value="" style="edgeStyle=none;orthogonalLoop=1;jettySize=auto;html=1;rounded=0;labelBackgroundColor=none;strokeColor=#182E3E;fontColor=default;" edge="1" parent="6G9ahUbNiyrmslpl5jez-11" source="6G9ahUbNiyrmslpl5jez-12" target="6G9ahUbNiyrmslpl5jez-12">
          <mxGeometry width="80" relative="1" as="geometry">
            <mxPoint x="10" y="755" as="sourcePoint" />
            <mxPoint x="-50" y="705" as="targetPoint" />
            <Array as="points">
              <mxPoint x="-50" y="785" />
              <mxPoint x="-50" y="355" />
            </Array>
          </mxGeometry>
        </mxCell>
        <mxCell id="6G9ahUbNiyrmslpl5jez-102" value="Loop if not finished" style="edgeLabel;html=1;align=center;verticalAlign=middle;resizable=0;points=[];labelBackgroundColor=none;fontColor=#1A1A1A;" vertex="1" connectable="0" parent="6G9ahUbNiyrmslpl5jez-101">
          <mxGeometry x="-0.8827" y="-2" relative="1" as="geometry">
            <mxPoint x="-22" y="12" as="offset" />
          </mxGeometry>
        </mxCell>
        <mxCell id="6G9ahUbNiyrmslpl5jez-17" value="Async round protocol&lt;br&gt;&lt;span style=&quot;font-size: 8px;&quot;&gt;crate:round_based&lt;/span&gt;" style="text;html=1;align=center;verticalAlign=middle;resizable=0;points=[];autosize=1;strokeColor=none;fillColor=none;labelBackgroundColor=none;fontColor=#1A1A1A;" vertex="1" parent="1">
          <mxGeometry x="305" y="15" width="140" height="40" as="geometry" />
        </mxCell>
        <mxCell id="6G9ahUbNiyrmslpl5jez-19" value="&lt;span style=&quot;font-size: 10px;&quot;&gt;Run&lt;/span&gt;" style="html=1;verticalAlign=bottom;endArrow=block;edgeStyle=elbowEdgeStyle;elbow=vertical;curved=0;rounded=0;labelBackgroundColor=none;fontColor=default;strokeColor=#182E3E;" edge="1" parent="1" source="6G9ahUbNiyrmslpl5jez-5" target="6G9ahUbNiyrmslpl5jez-12">
          <mxGeometry x="-0.7241" width="80" relative="1" as="geometry">
            <mxPoint x="240" y="250" as="sourcePoint" />
            <mxPoint x="350" y="250" as="targetPoint" />
            <mxPoint as="offset" />
            <Array as="points">
              <mxPoint x="290" y="240" />
              <mxPoint x="300" y="230" />
            </Array>
          </mxGeometry>
        </mxCell>
        <mxCell id="6G9ahUbNiyrmslpl5jez-20" value="" style="shape=umlLifeline;perimeter=lifelinePerimeter;whiteSpace=wrap;html=1;container=1;dropTarget=0;collapsible=0;recursiveResize=0;outlineConnect=0;portConstraint=eastwest;newEdgeStyle={&quot;edgeStyle&quot;:&quot;elbowEdgeStyle&quot;,&quot;elbow&quot;:&quot;vertical&quot;,&quot;curved&quot;:0,&quot;rounded&quot;:0};participant=umlEntity;labelBackgroundColor=none;fillColor=#F5AB50;strokeColor=#909090;fontColor=#1A1A1A;" vertex="1" parent="1">
          <mxGeometry x="480" y="55" width="40" height="835" as="geometry" />
        </mxCell>
        <mxCell id="6G9ahUbNiyrmslpl5jez-21" value="" style="html=1;points=[];perimeter=orthogonalPerimeter;outlineConnect=0;targetShapes=umlLifeline;portConstraint=eastwest;newEdgeStyle={&quot;edgeStyle&quot;:&quot;elbowEdgeStyle&quot;,&quot;elbow&quot;:&quot;vertical&quot;,&quot;curved&quot;:0,&quot;rounded&quot;:0};labelBackgroundColor=none;fillColor=#F5AB50;strokeColor=#909090;fontColor=#1A1A1A;" vertex="1" parent="6G9ahUbNiyrmslpl5jez-20">
          <mxGeometry x="15" y="210" width="10" height="50" as="geometry" />
        </mxCell>
        <mxCell id="6G9ahUbNiyrmslpl5jez-32" value="" style="html=1;points=[];perimeter=orthogonalPerimeter;outlineConnect=0;targetShapes=umlLifeline;portConstraint=eastwest;newEdgeStyle={&quot;edgeStyle&quot;:&quot;elbowEdgeStyle&quot;,&quot;elbow&quot;:&quot;vertical&quot;,&quot;curved&quot;:0,&quot;rounded&quot;:0};labelBackgroundColor=none;fillColor=#F5AB50;strokeColor=#909090;fontColor=#1A1A1A;" vertex="1" parent="6G9ahUbNiyrmslpl5jez-20">
          <mxGeometry x="15" y="275" width="10" height="35" as="geometry" />
        </mxCell>
        <mxCell id="6G9ahUbNiyrmslpl5jez-58" value="" style="html=1;points=[];perimeter=orthogonalPerimeter;outlineConnect=0;targetShapes=umlLifeline;portConstraint=eastwest;newEdgeStyle={&quot;edgeStyle&quot;:&quot;elbowEdgeStyle&quot;,&quot;elbow&quot;:&quot;vertical&quot;,&quot;curved&quot;:0,&quot;rounded&quot;:0};labelBackgroundColor=none;fillColor=#F5AB50;strokeColor=#909090;fontColor=#1A1A1A;" vertex="1" parent="6G9ahUbNiyrmslpl5jez-20">
          <mxGeometry x="15" y="405" width="10" height="35" as="geometry" />
        </mxCell>
        <mxCell id="6G9ahUbNiyrmslpl5jez-22" value="Keygen state machine&lt;br&gt;&lt;span style=&quot;font-size: 8px;&quot;&gt;gg_2020.keygen&lt;/span&gt;" style="text;html=1;align=center;verticalAlign=middle;resizable=0;points=[];autosize=1;strokeColor=none;fillColor=none;labelBackgroundColor=none;fontColor=#1A1A1A;" vertex="1" parent="1">
          <mxGeometry x="430" y="15" width="140" height="40" as="geometry" />
        </mxCell>
        <mxCell id="6G9ahUbNiyrmslpl5jez-24" value="" style="html=1;points=[];perimeter=orthogonalPerimeter;outlineConnect=0;targetShapes=umlLifeline;portConstraint=eastwest;newEdgeStyle={&quot;edgeStyle&quot;:&quot;elbowEdgeStyle&quot;,&quot;elbow&quot;:&quot;vertical&quot;,&quot;curved&quot;:0,&quot;rounded&quot;:0};labelBackgroundColor=none;fillColor=#F5AB50;strokeColor=#909090;fontColor=#1A1A1A;" vertex="1" parent="1">
          <mxGeometry x="390" y="250" width="10" height="130" as="geometry" />
        </mxCell>
        <mxCell id="6G9ahUbNiyrmslpl5jez-25" value="" style="edgeStyle=none;orthogonalLoop=1;jettySize=auto;html=1;rounded=0;labelBackgroundColor=none;strokeColor=#182E3E;fontColor=default;" edge="1" parent="1" source="6G9ahUbNiyrmslpl5jez-12" target="6G9ahUbNiyrmslpl5jez-24">
          <mxGeometry width="80" relative="1" as="geometry">
            <mxPoint x="420" y="240" as="sourcePoint" />
            <mxPoint x="550" y="250" as="targetPoint" />
            <Array as="points">
              <mxPoint x="460" y="240" />
              <mxPoint x="460" y="260" />
            </Array>
          </mxGeometry>
        </mxCell>
        <mxCell id="6G9ahUbNiyrmslpl5jez-26" value="proceed_if_needed" style="edgeLabel;html=1;align=center;verticalAlign=middle;resizable=0;points=[];fontSize=10;labelBackgroundColor=none;fontColor=#1A1A1A;" vertex="1" connectable="0" parent="6G9ahUbNiyrmslpl5jez-25">
          <mxGeometry x="-0.5418" y="4" relative="1" as="geometry">
            <mxPoint x="7" y="-6" as="offset" />
          </mxGeometry>
        </mxCell>
        <mxCell id="6G9ahUbNiyrmslpl5jez-28" value="" style="edgeStyle=none;orthogonalLoop=1;jettySize=auto;html=1;rounded=0;labelBackgroundColor=none;strokeColor=#182E3E;fontColor=default;" edge="1" parent="1" source="6G9ahUbNiyrmslpl5jez-24" target="6G9ahUbNiyrmslpl5jez-21">
          <mxGeometry width="80" relative="1" as="geometry">
            <mxPoint x="410" y="270" as="sourcePoint" />
            <mxPoint x="490" y="270" as="targetPoint" />
            <Array as="points">
              <mxPoint x="450" y="290" />
            </Array>
          </mxGeometry>
        </mxCell>
        <mxCell id="6G9ahUbNiyrmslpl5jez-31" value="wants_to_proceed" style="edgeLabel;html=1;align=center;verticalAlign=middle;resizable=0;points=[];fontSize=10;labelBackgroundColor=none;fontColor=#1A1A1A;" vertex="1" connectable="0" parent="6G9ahUbNiyrmslpl5jez-28">
          <mxGeometry x="-0.1474" y="1" relative="1" as="geometry">
            <mxPoint x="4" y="-9" as="offset" />
          </mxGeometry>
        </mxCell>
        <mxCell id="6G9ahUbNiyrmslpl5jez-29" value="" style="edgeStyle=none;orthogonalLoop=1;jettySize=auto;html=1;rounded=0;dashed=1;startArrow=none;startFill=0;endArrow=classic;endFill=1;labelBackgroundColor=none;strokeColor=#182E3E;fontColor=default;" edge="1" parent="1">
          <mxGeometry width="80" relative="1" as="geometry">
            <mxPoint x="495" y="310" as="sourcePoint" />
            <mxPoint x="400" y="310" as="targetPoint" />
            <Array as="points">
              <mxPoint x="450" y="310" />
            </Array>
          </mxGeometry>
        </mxCell>
        <mxCell id="6G9ahUbNiyrmslpl5jez-30" value="returns" style="edgeLabel;html=1;align=center;verticalAlign=middle;resizable=0;points=[];fontSize=10;labelBackgroundColor=none;fontColor=#1A1A1A;" vertex="1" connectable="0" parent="6G9ahUbNiyrmslpl5jez-29">
          <mxGeometry x="-0.3614" y="2" relative="1" as="geometry">
            <mxPoint x="-20" y="-12" as="offset" />
          </mxGeometry>
        </mxCell>
        <mxCell id="6G9ahUbNiyrmslpl5jez-33" value="" style="edgeStyle=none;orthogonalLoop=1;jettySize=auto;html=1;rounded=0;labelBackgroundColor=none;strokeColor=#182E3E;fontColor=default;" edge="1" parent="1" source="6G9ahUbNiyrmslpl5jez-24" target="6G9ahUbNiyrmslpl5jez-32">
          <mxGeometry width="80" relative="1" as="geometry">
            <mxPoint x="410" y="340" as="sourcePoint" />
            <mxPoint x="505" y="340" as="targetPoint" />
            <Array as="points">
              <mxPoint x="460" y="340" />
            </Array>
          </mxGeometry>
        </mxCell>
        <mxCell id="6G9ahUbNiyrmslpl5jez-34" value="proceed" style="edgeLabel;html=1;align=center;verticalAlign=middle;resizable=0;points=[];fontSize=10;labelBackgroundColor=none;fontColor=#1A1A1A;" vertex="1" connectable="0" parent="6G9ahUbNiyrmslpl5jez-33">
          <mxGeometry x="-0.1474" y="1" relative="1" as="geometry">
            <mxPoint x="4" y="-9" as="offset" />
          </mxGeometry>
        </mxCell>
        <mxCell id="6G9ahUbNiyrmslpl5jez-35" value="" style="shape=umlLifeline;perimeter=lifelinePerimeter;whiteSpace=wrap;html=1;container=1;dropTarget=0;collapsible=0;recursiveResize=0;outlineConnect=0;portConstraint=eastwest;newEdgeStyle={&quot;edgeStyle&quot;:&quot;elbowEdgeStyle&quot;,&quot;elbow&quot;:&quot;vertical&quot;,&quot;curved&quot;:0,&quot;rounded&quot;:0};participant=umlEntity;labelBackgroundColor=none;fillColor=#F5AB50;strokeColor=#909090;fontColor=#1A1A1A;" vertex="1" parent="1">
          <mxGeometry x="600" y="55" width="40" height="835" as="geometry" />
        </mxCell>
        <mxCell id="6G9ahUbNiyrmslpl5jez-37" value="" style="html=1;points=[];perimeter=orthogonalPerimeter;outlineConnect=0;targetShapes=umlLifeline;portConstraint=eastwest;newEdgeStyle={&quot;edgeStyle&quot;:&quot;elbowEdgeStyle&quot;,&quot;elbow&quot;:&quot;vertical&quot;,&quot;curved&quot;:0,&quot;rounded&quot;:0};labelBackgroundColor=none;fillColor=#F5AB50;strokeColor=#909090;fontColor=#1A1A1A;" vertex="1" parent="6G9ahUbNiyrmslpl5jez-35">
          <mxGeometry x="15" y="275" width="10" height="35" as="geometry" />
        </mxCell>
        <mxCell id="6G9ahUbNiyrmslpl5jez-38" value="Rounds&lt;br&gt;&lt;span style=&quot;font-size: 8px;&quot;&gt;gg_2020.keygen.rounds&lt;/span&gt;" style="text;html=1;align=center;verticalAlign=middle;resizable=0;points=[];autosize=1;strokeColor=none;fillColor=none;labelBackgroundColor=none;fontColor=#1A1A1A;" vertex="1" parent="1">
          <mxGeometry x="565" y="15" width="110" height="40" as="geometry" />
        </mxCell>
        <mxCell id="6G9ahUbNiyrmslpl5jez-39" value="" style="edgeStyle=none;orthogonalLoop=1;jettySize=auto;html=1;rounded=0;labelBackgroundColor=none;strokeColor=#182E3E;fontColor=default;" edge="1" parent="1" source="6G9ahUbNiyrmslpl5jez-32" target="6G9ahUbNiyrmslpl5jez-37">
          <mxGeometry width="80" relative="1" as="geometry">
            <mxPoint x="520" y="340" as="sourcePoint" />
            <mxPoint x="615" y="340" as="targetPoint" />
            <Array as="points">
              <mxPoint x="580" y="340" />
            </Array>
          </mxGeometry>
        </mxCell>
        <mxCell id="6G9ahUbNiyrmslpl5jez-40" value="round*.proceed" style="edgeLabel;html=1;align=center;verticalAlign=middle;resizable=0;points=[];fontSize=10;labelBackgroundColor=none;fontColor=#1A1A1A;" vertex="1" connectable="0" parent="6G9ahUbNiyrmslpl5jez-39">
          <mxGeometry x="-0.1474" y="1" relative="1" as="geometry">
            <mxPoint x="4" y="-9" as="offset" />
          </mxGeometry>
        </mxCell>
        <mxCell id="6G9ahUbNiyrmslpl5jez-41" value="" style="edgeStyle=none;orthogonalLoop=1;jettySize=auto;html=1;rounded=0;labelBackgroundColor=none;fontColor=default;strokeColor=#182E3E;" edge="1" parent="1" target="6G9ahUbNiyrmslpl5jez-37">
          <mxGeometry width="80" relative="1" as="geometry">
            <mxPoint x="625" y="345" as="sourcePoint" />
            <mxPoint x="625" y="365" as="targetPoint" />
            <Array as="points">
              <mxPoint x="720" y="345" />
              <mxPoint x="720" y="360" />
            </Array>
          </mxGeometry>
        </mxCell>
        <mxCell id="6G9ahUbNiyrmslpl5jez-42" value="&lt;span style=&quot;font-size: 10px;&quot;&gt;sends messages if needed to stream&lt;/span&gt;" style="edgeLabel;html=1;align=center;verticalAlign=middle;resizable=0;points=[];labelBackgroundColor=none;fontColor=#1A1A1A;fontSize=10;" vertex="1" connectable="0" parent="6G9ahUbNiyrmslpl5jez-41">
          <mxGeometry x="-0.6935" y="-1" relative="1" as="geometry">
            <mxPoint x="53" y="-16" as="offset" />
          </mxGeometry>
        </mxCell>
        <mxCell id="6G9ahUbNiyrmslpl5jez-43" value="" style="edgeStyle=none;orthogonalLoop=1;jettySize=auto;html=1;rounded=0;dashed=1;startArrow=none;startFill=0;endArrow=classic;endFill=1;labelBackgroundColor=none;strokeColor=#182E3E;fontColor=default;" edge="1" parent="1" source="6G9ahUbNiyrmslpl5jez-37" target="6G9ahUbNiyrmslpl5jez-32">
          <mxGeometry width="80" relative="1" as="geometry">
            <mxPoint x="615" y="360" as="sourcePoint" />
            <mxPoint x="520" y="360" as="targetPoint" />
            <Array as="points">
              <mxPoint x="570" y="360" />
            </Array>
          </mxGeometry>
        </mxCell>
        <mxCell id="6G9ahUbNiyrmslpl5jez-44" value="returns" style="edgeLabel;html=1;align=center;verticalAlign=middle;resizable=0;points=[];fontSize=10;labelBackgroundColor=none;fontColor=#1A1A1A;" vertex="1" connectable="0" parent="6G9ahUbNiyrmslpl5jez-43">
          <mxGeometry x="-0.3614" y="2" relative="1" as="geometry">
            <mxPoint x="-20" y="-12" as="offset" />
          </mxGeometry>
        </mxCell>
        <mxCell id="6G9ahUbNiyrmslpl5jez-45" value="" style="edgeStyle=none;orthogonalLoop=1;jettySize=auto;html=1;rounded=0;dashed=1;startArrow=none;startFill=0;endArrow=classic;endFill=1;labelBackgroundColor=none;strokeColor=#182E3E;fontColor=default;" edge="1" parent="1" source="6G9ahUbNiyrmslpl5jez-32" target="6G9ahUbNiyrmslpl5jez-24">
          <mxGeometry width="80" relative="1" as="geometry">
            <mxPoint x="625" y="370" as="sourcePoint" />
            <mxPoint x="515" y="370" as="targetPoint" />
            <Array as="points">
              <mxPoint x="460" y="360" />
            </Array>
          </mxGeometry>
        </mxCell>
        <mxCell id="6G9ahUbNiyrmslpl5jez-46" value="returns" style="edgeLabel;html=1;align=center;verticalAlign=middle;resizable=0;points=[];fontSize=10;labelBackgroundColor=none;fontColor=#1A1A1A;" vertex="1" connectable="0" parent="6G9ahUbNiyrmslpl5jez-45">
          <mxGeometry x="-0.3614" y="2" relative="1" as="geometry">
            <mxPoint x="-20" y="-12" as="offset" />
          </mxGeometry>
        </mxCell>
        <mxCell id="6G9ahUbNiyrmslpl5jez-49" value="" style="edgeStyle=none;orthogonalLoop=1;jettySize=auto;html=1;rounded=0;dashed=1;startArrow=none;startFill=0;endArrow=classic;endFill=1;labelBackgroundColor=none;strokeColor=#182E3E;fontColor=default;" edge="1" parent="1" source="6G9ahUbNiyrmslpl5jez-24" target="6G9ahUbNiyrmslpl5jez-12">
          <mxGeometry width="80" relative="1" as="geometry">
            <mxPoint x="505" y="370" as="sourcePoint" />
            <mxPoint x="410" y="370" as="targetPoint" />
            <Array as="points">
              <mxPoint x="380" y="370" />
            </Array>
          </mxGeometry>
        </mxCell>
        <mxCell id="6G9ahUbNiyrmslpl5jez-50" value="returns" style="edgeLabel;html=1;align=center;verticalAlign=middle;resizable=0;points=[];fontSize=10;labelBackgroundColor=none;fontColor=#1A1A1A;" vertex="1" connectable="0" parent="6G9ahUbNiyrmslpl5jez-49">
          <mxGeometry x="-0.3614" y="2" relative="1" as="geometry">
            <mxPoint x="-3" y="-12" as="offset" />
          </mxGeometry>
        </mxCell>
        <mxCell id="6G9ahUbNiyrmslpl5jez-51" value="" style="edgeStyle=none;orthogonalLoop=1;jettySize=auto;html=1;rounded=0;labelBackgroundColor=none;strokeColor=#182E3E;fontColor=default;" edge="1" parent="1">
          <mxGeometry width="80" relative="1" as="geometry">
            <mxPoint x="375" y="400" as="sourcePoint" />
            <mxPoint x="375" y="410" as="targetPoint" />
            <Array as="points">
              <mxPoint x="470" y="400" />
              <mxPoint x="470" y="410" />
            </Array>
          </mxGeometry>
        </mxCell>
        <mxCell id="6G9ahUbNiyrmslpl5jez-52" value="send out msgs to other parties" style="edgeLabel;html=1;align=center;verticalAlign=middle;resizable=0;points=[];fontSize=10;labelBackgroundColor=none;fontColor=#1A1A1A;" vertex="1" connectable="0" parent="6G9ahUbNiyrmslpl5jez-51">
          <mxGeometry x="-0.5418" y="4" relative="1" as="geometry">
            <mxPoint x="24" y="-6" as="offset" />
          </mxGeometry>
        </mxCell>
        <mxCell id="6G9ahUbNiyrmslpl5jez-55" value="" style="html=1;points=[];perimeter=orthogonalPerimeter;outlineConnect=0;targetShapes=umlLifeline;portConstraint=eastwest;newEdgeStyle={&quot;edgeStyle&quot;:&quot;elbowEdgeStyle&quot;,&quot;elbow&quot;:&quot;vertical&quot;,&quot;curved&quot;:0,&quot;rounded&quot;:0};labelBackgroundColor=none;fillColor=#F5AB50;strokeColor=#909090;fontColor=#1A1A1A;" vertex="1" parent="1">
          <mxGeometry x="390" y="445" width="10" height="55" as="geometry" />
        </mxCell>
        <mxCell id="6G9ahUbNiyrmslpl5jez-56" value="" style="edgeStyle=none;orthogonalLoop=1;jettySize=auto;html=1;rounded=0;labelBackgroundColor=none;strokeColor=#182E3E;fontColor=default;" edge="1" parent="1" source="6G9ahUbNiyrmslpl5jez-12" target="6G9ahUbNiyrmslpl5jez-55">
          <mxGeometry width="80" relative="1" as="geometry">
            <mxPoint x="370" y="430" as="sourcePoint" />
            <mxPoint x="415" y="460" as="targetPoint" />
            <Array as="points">
              <mxPoint x="420" y="430" />
              <mxPoint x="475" y="430" />
              <mxPoint x="475" y="450" />
            </Array>
          </mxGeometry>
        </mxCell>
        <mxCell id="6G9ahUbNiyrmslpl5jez-57" value="handle_incoming" style="edgeLabel;html=1;align=center;verticalAlign=middle;resizable=0;points=[];fontSize=10;labelBackgroundColor=none;fontColor=#1A1A1A;" vertex="1" connectable="0" parent="6G9ahUbNiyrmslpl5jez-56">
          <mxGeometry x="-0.5418" y="4" relative="1" as="geometry">
            <mxPoint x="7" y="-6" as="offset" />
          </mxGeometry>
        </mxCell>
        <mxCell id="6G9ahUbNiyrmslpl5jez-59" value="" style="edgeStyle=none;orthogonalLoop=1;jettySize=auto;html=1;rounded=0;labelBackgroundColor=none;strokeColor=#182E3E;fontColor=default;" edge="1" parent="1">
          <mxGeometry width="80" relative="1" as="geometry">
            <mxPoint x="400" y="470.5799999999999" as="sourcePoint" />
            <mxPoint x="495" y="470.5799999999999" as="targetPoint" />
            <Array as="points">
              <mxPoint x="460" y="470.58000000000004" />
            </Array>
          </mxGeometry>
        </mxCell>
        <mxCell id="6G9ahUbNiyrmslpl5jez-60" value="handle_incoming" style="edgeLabel;html=1;align=center;verticalAlign=middle;resizable=0;points=[];fontSize=10;labelBackgroundColor=none;fontColor=#1A1A1A;" vertex="1" connectable="0" parent="6G9ahUbNiyrmslpl5jez-59">
          <mxGeometry x="-0.1474" y="1" relative="1" as="geometry">
            <mxPoint x="4" y="-9" as="offset" />
          </mxGeometry>
        </mxCell>
        <mxCell id="6G9ahUbNiyrmslpl5jez-61" value="" style="edgeStyle=none;orthogonalLoop=1;jettySize=auto;html=1;rounded=0;dashed=1;startArrow=none;startFill=0;endArrow=classic;endFill=1;labelBackgroundColor=none;strokeColor=#182E3E;fontColor=default;" edge="1" parent="1" source="6G9ahUbNiyrmslpl5jez-58" target="6G9ahUbNiyrmslpl5jez-55">
          <mxGeometry width="80" relative="1" as="geometry">
            <mxPoint x="625" y="370" as="sourcePoint" />
            <mxPoint x="515" y="370" as="targetPoint" />
            <Array as="points">
              <mxPoint x="460" y="490" />
            </Array>
          </mxGeometry>
        </mxCell>
        <mxCell id="6G9ahUbNiyrmslpl5jez-62" value="returns" style="edgeLabel;html=1;align=center;verticalAlign=middle;resizable=0;points=[];fontSize=10;labelBackgroundColor=none;fontColor=#1A1A1A;" vertex="1" connectable="0" parent="6G9ahUbNiyrmslpl5jez-61">
          <mxGeometry x="-0.3614" y="2" relative="1" as="geometry">
            <mxPoint x="-20" y="-12" as="offset" />
          </mxGeometry>
        </mxCell>
        <mxCell id="6G9ahUbNiyrmslpl5jez-63" value="" style="edgeStyle=none;orthogonalLoop=1;jettySize=auto;html=1;rounded=0;dashed=1;startArrow=none;startFill=0;endArrow=classic;endFill=1;labelBackgroundColor=none;strokeColor=#182E3E;fontColor=default;" edge="1" parent="1" source="6G9ahUbNiyrmslpl5jez-55" target="6G9ahUbNiyrmslpl5jez-12">
          <mxGeometry width="80" relative="1" as="geometry">
            <mxPoint x="400" y="380" as="sourcePoint" />
            <mxPoint x="385" y="380" as="targetPoint" />
            <Array as="points">
              <mxPoint x="380" y="490" />
            </Array>
          </mxGeometry>
        </mxCell>
        <mxCell id="6G9ahUbNiyrmslpl5jez-64" value="returns" style="edgeLabel;html=1;align=center;verticalAlign=middle;resizable=0;points=[];fontSize=10;labelBackgroundColor=none;fontColor=#1A1A1A;" vertex="1" connectable="0" parent="6G9ahUbNiyrmslpl5jez-63">
          <mxGeometry x="-0.3614" y="2" relative="1" as="geometry">
            <mxPoint x="-3" y="-12" as="offset" />
          </mxGeometry>
        </mxCell>
        <mxCell id="6G9ahUbNiyrmslpl5jez-67" value="" style="html=1;points=[];perimeter=orthogonalPerimeter;outlineConnect=0;targetShapes=umlLifeline;portConstraint=eastwest;newEdgeStyle={&quot;edgeStyle&quot;:&quot;elbowEdgeStyle&quot;,&quot;elbow&quot;:&quot;vertical&quot;,&quot;curved&quot;:0,&quot;rounded&quot;:0};labelBackgroundColor=none;fillColor=#F5AB50;strokeColor=#909090;fontColor=#1A1A1A;" vertex="1" parent="1">
          <mxGeometry x="503" y="585" width="10" height="50" as="geometry" />
        </mxCell>
        <mxCell id="6G9ahUbNiyrmslpl5jez-68" value="" style="html=1;points=[];perimeter=orthogonalPerimeter;outlineConnect=0;targetShapes=umlLifeline;portConstraint=eastwest;newEdgeStyle={&quot;edgeStyle&quot;:&quot;elbowEdgeStyle&quot;,&quot;elbow&quot;:&quot;vertical&quot;,&quot;curved&quot;:0,&quot;rounded&quot;:0};labelBackgroundColor=none;fillColor=#F5AB50;strokeColor=#909090;fontColor=#1A1A1A;" vertex="1" parent="1">
          <mxGeometry x="503" y="650" width="10" height="35" as="geometry" />
        </mxCell>
        <mxCell id="6G9ahUbNiyrmslpl5jez-69" value="" style="html=1;points=[];perimeter=orthogonalPerimeter;outlineConnect=0;targetShapes=umlLifeline;portConstraint=eastwest;newEdgeStyle={&quot;edgeStyle&quot;:&quot;elbowEdgeStyle&quot;,&quot;elbow&quot;:&quot;vertical&quot;,&quot;curved&quot;:0,&quot;rounded&quot;:0};labelBackgroundColor=none;fillColor=#F5AB50;strokeColor=#909090;fontColor=#1A1A1A;" vertex="1" parent="1">
          <mxGeometry x="398" y="570" width="10" height="120" as="geometry" />
        </mxCell>
        <mxCell id="6G9ahUbNiyrmslpl5jez-71" value="" style="edgeStyle=none;orthogonalLoop=1;jettySize=auto;html=1;rounded=0;labelBackgroundColor=none;strokeColor=#182E3E;fontColor=default;" edge="1" parent="1" source="6G9ahUbNiyrmslpl5jez-69" target="6G9ahUbNiyrmslpl5jez-67">
          <mxGeometry width="80" relative="1" as="geometry">
            <mxPoint x="418" y="590" as="sourcePoint" />
            <mxPoint x="498" y="590" as="targetPoint" />
            <Array as="points">
              <mxPoint x="458" y="610" />
            </Array>
          </mxGeometry>
        </mxCell>
        <mxCell id="6G9ahUbNiyrmslpl5jez-72" value="wants_to_proceed" style="edgeLabel;html=1;align=center;verticalAlign=middle;resizable=0;points=[];fontSize=10;labelBackgroundColor=none;fontColor=#1A1A1A;" vertex="1" connectable="0" parent="6G9ahUbNiyrmslpl5jez-71">
          <mxGeometry x="-0.1474" y="1" relative="1" as="geometry">
            <mxPoint x="4" y="-9" as="offset" />
          </mxGeometry>
        </mxCell>
        <mxCell id="6G9ahUbNiyrmslpl5jez-73" value="" style="edgeStyle=none;orthogonalLoop=1;jettySize=auto;html=1;rounded=0;dashed=1;startArrow=none;startFill=0;endArrow=classic;endFill=1;labelBackgroundColor=none;strokeColor=#182E3E;fontColor=default;" edge="1" parent="1">
          <mxGeometry width="80" relative="1" as="geometry">
            <mxPoint x="503" y="630" as="sourcePoint" />
            <mxPoint x="408" y="630" as="targetPoint" />
            <Array as="points">
              <mxPoint x="458" y="630" />
            </Array>
          </mxGeometry>
        </mxCell>
        <mxCell id="6G9ahUbNiyrmslpl5jez-74" value="returns" style="edgeLabel;html=1;align=center;verticalAlign=middle;resizable=0;points=[];fontSize=10;labelBackgroundColor=none;fontColor=#1A1A1A;" vertex="1" connectable="0" parent="6G9ahUbNiyrmslpl5jez-73">
          <mxGeometry x="-0.3614" y="2" relative="1" as="geometry">
            <mxPoint x="-20" y="-12" as="offset" />
          </mxGeometry>
        </mxCell>
        <mxCell id="6G9ahUbNiyrmslpl5jez-75" value="" style="edgeStyle=none;orthogonalLoop=1;jettySize=auto;html=1;rounded=0;labelBackgroundColor=none;strokeColor=#182E3E;fontColor=default;" edge="1" parent="1" source="6G9ahUbNiyrmslpl5jez-69" target="6G9ahUbNiyrmslpl5jez-68">
          <mxGeometry width="80" relative="1" as="geometry">
            <mxPoint x="418" y="660" as="sourcePoint" />
            <mxPoint x="513" y="660" as="targetPoint" />
            <Array as="points">
              <mxPoint x="468" y="660" />
            </Array>
          </mxGeometry>
        </mxCell>
        <mxCell id="6G9ahUbNiyrmslpl5jez-76" value="proceed" style="edgeLabel;html=1;align=center;verticalAlign=middle;resizable=0;points=[];fontSize=10;labelBackgroundColor=none;fontColor=#1A1A1A;" vertex="1" connectable="0" parent="6G9ahUbNiyrmslpl5jez-75">
          <mxGeometry x="-0.1474" y="1" relative="1" as="geometry">
            <mxPoint x="4" y="-9" as="offset" />
          </mxGeometry>
        </mxCell>
        <mxCell id="6G9ahUbNiyrmslpl5jez-77" value="" style="html=1;points=[];perimeter=orthogonalPerimeter;outlineConnect=0;targetShapes=umlLifeline;portConstraint=eastwest;newEdgeStyle={&quot;edgeStyle&quot;:&quot;elbowEdgeStyle&quot;,&quot;elbow&quot;:&quot;vertical&quot;,&quot;curved&quot;:0,&quot;rounded&quot;:0};labelBackgroundColor=none;fillColor=#F5AB50;strokeColor=#909090;fontColor=#1A1A1A;" vertex="1" parent="1">
          <mxGeometry x="623" y="650" width="10" height="35" as="geometry" />
        </mxCell>
        <mxCell id="6G9ahUbNiyrmslpl5jez-78" value="" style="edgeStyle=none;orthogonalLoop=1;jettySize=auto;html=1;rounded=0;labelBackgroundColor=none;strokeColor=#182E3E;fontColor=default;" edge="1" parent="1" source="6G9ahUbNiyrmslpl5jez-68" target="6G9ahUbNiyrmslpl5jez-77">
          <mxGeometry width="80" relative="1" as="geometry">
            <mxPoint x="528" y="660" as="sourcePoint" />
            <mxPoint x="623" y="660" as="targetPoint" />
            <Array as="points">
              <mxPoint x="588" y="660" />
            </Array>
          </mxGeometry>
        </mxCell>
        <mxCell id="6G9ahUbNiyrmslpl5jez-79" value="round*.proceed" style="edgeLabel;html=1;align=center;verticalAlign=middle;resizable=0;points=[];fontSize=10;labelBackgroundColor=none;fontColor=#1A1A1A;" vertex="1" connectable="0" parent="6G9ahUbNiyrmslpl5jez-78">
          <mxGeometry x="-0.1474" y="1" relative="1" as="geometry">
            <mxPoint x="4" y="-9" as="offset" />
          </mxGeometry>
        </mxCell>
        <mxCell id="6G9ahUbNiyrmslpl5jez-80" value="" style="edgeStyle=none;orthogonalLoop=1;jettySize=auto;html=1;rounded=0;labelBackgroundColor=none;fontColor=default;strokeColor=#182E3E;" edge="1" parent="1" target="6G9ahUbNiyrmslpl5jez-77">
          <mxGeometry width="80" relative="1" as="geometry">
            <mxPoint x="633" y="665" as="sourcePoint" />
            <mxPoint x="633" y="685" as="targetPoint" />
            <Array as="points">
              <mxPoint x="728" y="665" />
              <mxPoint x="728" y="680" />
            </Array>
          </mxGeometry>
        </mxCell>
        <mxCell id="6G9ahUbNiyrmslpl5jez-81" value="&lt;span style=&quot;font-size: 10px;&quot;&gt;sends messages if needed to stream&lt;/span&gt;" style="edgeLabel;html=1;align=center;verticalAlign=middle;resizable=0;points=[];labelBackgroundColor=none;fontColor=#1A1A1A;fontSize=10;" vertex="1" connectable="0" parent="6G9ahUbNiyrmslpl5jez-80">
          <mxGeometry x="-0.6935" y="-1" relative="1" as="geometry">
            <mxPoint x="53" y="-16" as="offset" />
          </mxGeometry>
        </mxCell>
        <mxCell id="6G9ahUbNiyrmslpl5jez-82" value="" style="edgeStyle=none;orthogonalLoop=1;jettySize=auto;html=1;rounded=0;dashed=1;startArrow=none;startFill=0;endArrow=classic;endFill=1;labelBackgroundColor=none;strokeColor=#182E3E;fontColor=default;" edge="1" parent="1" source="6G9ahUbNiyrmslpl5jez-77" target="6G9ahUbNiyrmslpl5jez-68">
          <mxGeometry width="80" relative="1" as="geometry">
            <mxPoint x="623" y="680" as="sourcePoint" />
            <mxPoint x="528" y="680" as="targetPoint" />
            <Array as="points">
              <mxPoint x="578" y="680" />
            </Array>
          </mxGeometry>
        </mxCell>
        <mxCell id="6G9ahUbNiyrmslpl5jez-83" value="returns" style="edgeLabel;html=1;align=center;verticalAlign=middle;resizable=0;points=[];fontSize=10;labelBackgroundColor=none;fontColor=#1A1A1A;" vertex="1" connectable="0" parent="6G9ahUbNiyrmslpl5jez-82">
          <mxGeometry x="-0.3614" y="2" relative="1" as="geometry">
            <mxPoint x="-20" y="-12" as="offset" />
          </mxGeometry>
        </mxCell>
        <mxCell id="6G9ahUbNiyrmslpl5jez-84" value="" style="edgeStyle=none;orthogonalLoop=1;jettySize=auto;html=1;rounded=0;dashed=1;startArrow=none;startFill=0;endArrow=classic;endFill=1;labelBackgroundColor=none;strokeColor=#182E3E;fontColor=default;" edge="1" parent="1" source="6G9ahUbNiyrmslpl5jez-68" target="6G9ahUbNiyrmslpl5jez-69">
          <mxGeometry width="80" relative="1" as="geometry">
            <mxPoint x="633" y="690" as="sourcePoint" />
            <mxPoint x="523" y="690" as="targetPoint" />
            <Array as="points">
              <mxPoint x="468" y="680" />
            </Array>
          </mxGeometry>
        </mxCell>
        <mxCell id="6G9ahUbNiyrmslpl5jez-85" value="returns" style="edgeLabel;html=1;align=center;verticalAlign=middle;resizable=0;points=[];fontSize=10;labelBackgroundColor=none;fontColor=#1A1A1A;" vertex="1" connectable="0" parent="6G9ahUbNiyrmslpl5jez-84">
          <mxGeometry x="-0.3614" y="2" relative="1" as="geometry">
            <mxPoint x="-20" y="-12" as="offset" />
          </mxGeometry>
        </mxCell>
        <mxCell id="6G9ahUbNiyrmslpl5jez-87" value="" style="edgeStyle=none;orthogonalLoop=1;jettySize=auto;html=1;rounded=0;labelBackgroundColor=none;strokeColor=#182E3E;fontColor=default;" edge="1" parent="1" source="6G9ahUbNiyrmslpl5jez-12" target="6G9ahUbNiyrmslpl5jez-69">
          <mxGeometry width="80" relative="1" as="geometry">
            <mxPoint x="420" y="565" as="sourcePoint" />
            <mxPoint x="445" y="585" as="targetPoint" />
            <Array as="points">
              <mxPoint x="480" y="560" />
              <mxPoint x="480" y="570" />
            </Array>
          </mxGeometry>
        </mxCell>
        <mxCell id="6G9ahUbNiyrmslpl5jez-88" value="proceed_if_needed" style="edgeLabel;html=1;align=center;verticalAlign=middle;resizable=0;points=[];fontSize=10;labelBackgroundColor=none;fontColor=#1A1A1A;" vertex="1" connectable="0" parent="6G9ahUbNiyrmslpl5jez-87">
          <mxGeometry x="-0.5418" y="4" relative="1" as="geometry">
            <mxPoint x="7" y="-6" as="offset" />
          </mxGeometry>
        </mxCell>
        <mxCell id="6G9ahUbNiyrmslpl5jez-89" value="" style="edgeStyle=none;orthogonalLoop=1;jettySize=auto;html=1;rounded=0;dashed=1;startArrow=none;startFill=0;endArrow=classic;endFill=1;labelBackgroundColor=none;strokeColor=#182E3E;fontColor=default;" edge="1" parent="1" source="6G9ahUbNiyrmslpl5jez-69" target="6G9ahUbNiyrmslpl5jez-12">
          <mxGeometry width="80" relative="1" as="geometry">
            <mxPoint x="400" y="500" as="sourcePoint" />
            <mxPoint x="385" y="500" as="targetPoint" />
            <Array as="points">
              <mxPoint x="390" y="690" />
            </Array>
          </mxGeometry>
        </mxCell>
        <mxCell id="6G9ahUbNiyrmslpl5jez-90" value="returns" style="edgeLabel;html=1;align=center;verticalAlign=middle;resizable=0;points=[];fontSize=10;labelBackgroundColor=none;fontColor=#1A1A1A;" vertex="1" connectable="0" parent="6G9ahUbNiyrmslpl5jez-89">
          <mxGeometry x="-0.3614" y="2" relative="1" as="geometry">
            <mxPoint x="-3" y="-12" as="offset" />
          </mxGeometry>
        </mxCell>
        <mxCell id="6G9ahUbNiyrmslpl5jez-93" value="" style="html=1;points=[];perimeter=orthogonalPerimeter;outlineConnect=0;targetShapes=umlLifeline;portConstraint=eastwest;newEdgeStyle={&quot;edgeStyle&quot;:&quot;elbowEdgeStyle&quot;,&quot;elbow&quot;:&quot;vertical&quot;,&quot;curved&quot;:0,&quot;rounded&quot;:0};labelBackgroundColor=none;fillColor=#F5AB50;strokeColor=#909090;fontColor=#1A1A1A;" vertex="1" parent="1">
          <mxGeometry x="398" y="760" width="10" height="50" as="geometry" />
        </mxCell>
        <mxCell id="6G9ahUbNiyrmslpl5jez-94" value="" style="edgeStyle=none;orthogonalLoop=1;jettySize=auto;html=1;rounded=0;labelBackgroundColor=none;strokeColor=#182E3E;fontColor=default;" edge="1" parent="1" source="6G9ahUbNiyrmslpl5jez-12" target="6G9ahUbNiyrmslpl5jez-93">
          <mxGeometry width="80" relative="1" as="geometry">
            <mxPoint x="400" y="740" as="sourcePoint" />
            <mxPoint x="433" y="750" as="targetPoint" />
            <Array as="points">
              <mxPoint x="470" y="750" />
              <mxPoint x="470" y="760" />
            </Array>
          </mxGeometry>
        </mxCell>
        <mxCell id="6G9ahUbNiyrmslpl5jez-95" value="finish_if_possible" style="edgeLabel;html=1;align=center;verticalAlign=middle;resizable=0;points=[];fontSize=10;labelBackgroundColor=none;fontColor=#1A1A1A;" vertex="1" connectable="0" parent="6G9ahUbNiyrmslpl5jez-94">
          <mxGeometry x="-0.5418" y="4" relative="1" as="geometry">
            <mxPoint x="7" y="-6" as="offset" />
          </mxGeometry>
        </mxCell>
        <mxCell id="6G9ahUbNiyrmslpl5jez-96" value="" style="edgeStyle=none;orthogonalLoop=1;jettySize=auto;html=1;rounded=0;labelBackgroundColor=none;fontColor=default;strokeColor=#182E3E;" edge="1" parent="1" source="6G9ahUbNiyrmslpl5jez-93" target="6G9ahUbNiyrmslpl5jez-93">
          <mxGeometry width="80" relative="1" as="geometry">
            <mxPoint x="410" y="785" as="sourcePoint" />
            <mxPoint x="410" y="800" as="targetPoint" />
            <Array as="points">
              <mxPoint x="480" y="785" />
              <mxPoint x="480" y="800" />
            </Array>
          </mxGeometry>
        </mxCell>
        <mxCell id="6G9ahUbNiyrmslpl5jez-97" value="&lt;span style=&quot;font-size: 10px;&quot;&gt;get output if finished, otherwise None&lt;/span&gt;" style="edgeLabel;html=1;align=center;verticalAlign=middle;resizable=0;points=[];labelBackgroundColor=none;fontColor=#1A1A1A;fontSize=10;" vertex="1" connectable="0" parent="6G9ahUbNiyrmslpl5jez-96">
          <mxGeometry x="-0.6935" y="-1" relative="1" as="geometry">
            <mxPoint x="58" y="-10" as="offset" />
          </mxGeometry>
        </mxCell>
        <mxCell id="6G9ahUbNiyrmslpl5jez-98" value="" style="edgeStyle=none;orthogonalLoop=1;jettySize=auto;html=1;rounded=0;dashed=1;startArrow=none;startFill=0;endArrow=classic;endFill=1;labelBackgroundColor=none;strokeColor=#182E3E;fontColor=default;" edge="1" parent="1" source="6G9ahUbNiyrmslpl5jez-93" target="6G9ahUbNiyrmslpl5jez-12">
          <mxGeometry width="80" relative="1" as="geometry">
            <mxPoint x="408" y="700" as="sourcePoint" />
            <mxPoint x="385" y="700" as="targetPoint" />
            <Array as="points">
              <mxPoint x="390" y="810" />
              <mxPoint x="380" y="810" />
            </Array>
          </mxGeometry>
        </mxCell>
        <mxCell id="6G9ahUbNiyrmslpl5jez-99" value="returns" style="edgeLabel;html=1;align=center;verticalAlign=middle;resizable=0;points=[];fontSize=10;labelBackgroundColor=none;fontColor=#1A1A1A;" vertex="1" connectable="0" parent="6G9ahUbNiyrmslpl5jez-98">
          <mxGeometry x="-0.3614" y="2" relative="1" as="geometry">
            <mxPoint x="-3" y="-12" as="offset" />
          </mxGeometry>
        </mxCell>
        <mxCell id="6G9ahUbNiyrmslpl5jez-103" value="" style="edgeStyle=none;orthogonalLoop=1;jettySize=auto;html=1;rounded=0;dashed=1;labelBackgroundColor=none;strokeColor=#182E3E;fontColor=default;" edge="1" parent="1" source="6G9ahUbNiyrmslpl5jez-12" target="6G9ahUbNiyrmslpl5jez-5">
          <mxGeometry width="80" relative="1" as="geometry">
            <mxPoint x="280" y="880" as="sourcePoint" />
            <mxPoint x="360" y="880" as="targetPoint" />
            <Array as="points">
              <mxPoint x="270" y="880" />
            </Array>
          </mxGeometry>
        </mxCell>
        <mxCell id="6G9ahUbNiyrmslpl5jez-104" value="returns" style="edgeLabel;html=1;align=center;verticalAlign=middle;resizable=0;points=[];labelBackgroundColor=none;fontColor=#1A1A1A;" vertex="1" connectable="0" parent="6G9ahUbNiyrmslpl5jez-103">
          <mxGeometry x="-0.1678" y="-4" relative="1" as="geometry">
            <mxPoint x="-5" as="offset" />
          </mxGeometry>
        </mxCell>
        <mxCell id="6G9ahUbNiyrmslpl5jez-105" value="" style="edgeStyle=none;orthogonalLoop=1;jettySize=auto;html=1;rounded=0;dashed=1;labelBackgroundColor=none;strokeColor=#182E3E;fontColor=default;" edge="1" parent="1" source="6G9ahUbNiyrmslpl5jez-5" target="6G9ahUbNiyrmslpl5jez-1">
          <mxGeometry width="80" relative="1" as="geometry">
            <mxPoint x="255" y="884.31" as="sourcePoint" />
            <mxPoint x="110" y="884.31" as="targetPoint" />
            <Array as="points">
              <mxPoint x="160" y="884.31" />
            </Array>
          </mxGeometry>
        </mxCell>
        <mxCell id="6G9ahUbNiyrmslpl5jez-106" value="returns" style="edgeLabel;html=1;align=center;verticalAlign=middle;resizable=0;points=[];labelBackgroundColor=none;fontColor=#1A1A1A;" vertex="1" connectable="0" parent="6G9ahUbNiyrmslpl5jez-105">
          <mxGeometry x="-0.1678" y="-4" relative="1" as="geometry">
            <mxPoint x="-5" as="offset" />
          </mxGeometry>
        </mxCell>
        <mxCell id="6G9ahUbNiyrmslpl5jez-107" value="Keygen" style="text;html=1;strokeColor=none;fillColor=none;align=center;verticalAlign=middle;whiteSpace=wrap;rounded=0;fontSize=16;labelBackgroundColor=none;fontColor=#1A1A1A;" vertex="1" parent="1">
          <mxGeometry width="60" height="30" as="geometry" />
        </mxCell>
        <mxCell id="6G9ahUbNiyrmslpl5jez-109" value="" style="shape=umlLifeline;perimeter=lifelinePerimeter;whiteSpace=wrap;html=1;container=1;dropTarget=0;collapsible=0;recursiveResize=0;outlineConnect=0;portConstraint=eastwest;newEdgeStyle={&quot;edgeStyle&quot;:&quot;elbowEdgeStyle&quot;,&quot;elbow&quot;:&quot;vertical&quot;,&quot;curved&quot;:0,&quot;rounded&quot;:0};participant=umlActor;labelBackgroundColor=none;fillColor=#F5AB50;strokeColor=#909090;fontColor=#1A1A1A;" vertex="1" parent="1">
          <mxGeometry x="90" y="980" width="20" height="1090" as="geometry" />
        </mxCell>
        <mxCell id="6G9ahUbNiyrmslpl5jez-110" value="Initiate signing" style="text;html=1;strokeColor=none;fillColor=none;align=center;verticalAlign=middle;whiteSpace=wrap;rounded=0;labelBackgroundColor=none;fontColor=#1A1A1A;" vertex="1" parent="1">
          <mxGeometry x="70" y="940" width="60" height="30" as="geometry" />
        </mxCell>
        <mxCell id="6G9ahUbNiyrmslpl5jez-111" value="Signing example&lt;br&gt;&lt;font style=&quot;font-size: 8px;&quot;&gt;examples/gg20_signing&lt;/font&gt;" style="text;html=1;align=center;verticalAlign=middle;resizable=0;points=[];autosize=1;strokeColor=none;fillColor=none;labelBackgroundColor=none;fontColor=#1A1A1A;" vertex="1" parent="1">
          <mxGeometry x="160" y="935" width="110" height="40" as="geometry" />
        </mxCell>
        <mxCell id="6G9ahUbNiyrmslpl5jez-112" value="" style="shape=umlLifeline;perimeter=lifelinePerimeter;whiteSpace=wrap;html=1;container=1;dropTarget=0;collapsible=0;recursiveResize=0;outlineConnect=0;portConstraint=eastwest;newEdgeStyle={&quot;edgeStyle&quot;:&quot;elbowEdgeStyle&quot;,&quot;elbow&quot;:&quot;vertical&quot;,&quot;curved&quot;:0,&quot;rounded&quot;:0};participant=umlEntity;labelBackgroundColor=none;fillColor=#F5AB50;strokeColor=#909090;fontColor=#1A1A1A;" vertex="1" parent="1">
          <mxGeometry x="195" y="980" width="40" height="1090" as="geometry" />
        </mxCell>
        <mxCell id="6G9ahUbNiyrmslpl5jez-113" value="" style="html=1;points=[];perimeter=orthogonalPerimeter;outlineConnect=0;targetShapes=umlLifeline;portConstraint=eastwest;newEdgeStyle={&quot;edgeStyle&quot;:&quot;elbowEdgeStyle&quot;,&quot;elbow&quot;:&quot;vertical&quot;,&quot;curved&quot;:0,&quot;rounded&quot;:0};labelBackgroundColor=none;fillColor=#F5AB50;strokeColor=#909090;fontColor=#1A1A1A;" vertex="1" parent="6G9ahUbNiyrmslpl5jez-112">
          <mxGeometry x="15" y="60" width="10" height="1010" as="geometry" />
        </mxCell>
        <mxCell id="6G9ahUbNiyrmslpl5jez-114" value="" style="edgeStyle=none;orthogonalLoop=1;jettySize=auto;html=1;rounded=0;labelBackgroundColor=none;fontColor=default;strokeColor=#182E3E;" edge="1" parent="6G9ahUbNiyrmslpl5jez-112" source="6G9ahUbNiyrmslpl5jez-113" target="6G9ahUbNiyrmslpl5jez-113">
          <mxGeometry width="80" relative="1" as="geometry">
            <mxPoint x="150" y="90" as="sourcePoint" />
            <mxPoint x="150" y="110" as="targetPoint" />
            <Array as="points">
              <mxPoint x="105" y="90" />
              <mxPoint x="105" y="110" />
            </Array>
          </mxGeometry>
        </mxCell>
        <mxCell id="6G9ahUbNiyrmslpl5jez-115" value="&lt;span style=&quot;font-size: 10px;&quot;&gt;creates incoming stream and fuse it&lt;/span&gt;" style="edgeLabel;html=1;align=center;verticalAlign=middle;resizable=0;points=[];labelBackgroundColor=none;fontColor=#1A1A1A;fontSize=10;" vertex="1" connectable="0" parent="6G9ahUbNiyrmslpl5jez-114">
          <mxGeometry x="-0.6935" y="-1" relative="1" as="geometry">
            <mxPoint x="52" y="-11" as="offset" />
          </mxGeometry>
        </mxCell>
        <mxCell id="6G9ahUbNiyrmslpl5jez-116" value="" style="edgeStyle=none;orthogonalLoop=1;jettySize=auto;html=1;rounded=0;labelBackgroundColor=none;fontColor=default;strokeColor=#182E3E;" edge="1" parent="6G9ahUbNiyrmslpl5jez-112" source="6G9ahUbNiyrmslpl5jez-113" target="6G9ahUbNiyrmslpl5jez-113">
          <mxGeometry width="80" relative="1" as="geometry">
            <mxPoint x="40" y="130" as="sourcePoint" />
            <mxPoint x="40" y="150" as="targetPoint" />
            <Array as="points">
              <mxPoint x="105" y="130" />
              <mxPoint x="105" y="150" />
            </Array>
          </mxGeometry>
        </mxCell>
        <mxCell id="6G9ahUbNiyrmslpl5jez-117" value="&lt;span style=&quot;font-size: 10px;&quot;&gt;creates outgoing sink&lt;/span&gt;" style="edgeLabel;html=1;align=center;verticalAlign=middle;resizable=0;points=[];labelBackgroundColor=none;fontColor=#1A1A1A;fontSize=10;" vertex="1" connectable="0" parent="6G9ahUbNiyrmslpl5jez-116">
          <mxGeometry x="-0.6935" y="-1" relative="1" as="geometry">
            <mxPoint x="22" y="-11" as="offset" />
          </mxGeometry>
        </mxCell>
        <mxCell id="6G9ahUbNiyrmslpl5jez-213" value="" style="edgeStyle=none;orthogonalLoop=1;jettySize=auto;html=1;rounded=0;labelBackgroundColor=none;fontColor=default;strokeColor=#182E3E;" edge="1" parent="6G9ahUbNiyrmslpl5jez-112" target="6G9ahUbNiyrmslpl5jez-113">
          <mxGeometry width="80" relative="1" as="geometry">
            <mxPoint x="25" y="965" as="sourcePoint" />
            <mxPoint x="25" y="985" as="targetPoint" />
            <Array as="points">
              <mxPoint x="125" y="965" />
              <mxPoint x="125" y="980" />
            </Array>
          </mxGeometry>
        </mxCell>
        <mxCell id="6G9ahUbNiyrmslpl5jez-214" value="&lt;span style=&quot;font-size: 10px;&quot;&gt;send partial sig in outgoing sig&lt;/span&gt;" style="edgeLabel;html=1;align=center;verticalAlign=middle;resizable=0;points=[];labelBackgroundColor=none;fontColor=#1A1A1A;fontSize=10;" vertex="1" connectable="0" parent="6G9ahUbNiyrmslpl5jez-213">
          <mxGeometry x="-0.6935" y="-1" relative="1" as="geometry">
            <mxPoint x="36" y="-9" as="offset" />
          </mxGeometry>
        </mxCell>
        <mxCell id="6G9ahUbNiyrmslpl5jez-216" value="" style="edgeStyle=none;orthogonalLoop=1;jettySize=auto;html=1;rounded=0;labelBackgroundColor=none;fontColor=default;strokeColor=#182E3E;" edge="1" parent="6G9ahUbNiyrmslpl5jez-112" source="6G9ahUbNiyrmslpl5jez-113" target="6G9ahUbNiyrmslpl5jez-113">
          <mxGeometry width="80" relative="1" as="geometry">
            <mxPoint x="25" y="1000" as="sourcePoint" />
            <mxPoint x="25" y="1015" as="targetPoint" />
            <Array as="points">
              <mxPoint x="125" y="1000" />
              <mxPoint x="125" y="1015" />
            </Array>
          </mxGeometry>
        </mxCell>
        <mxCell id="6G9ahUbNiyrmslpl5jez-217" value="&lt;span style=&quot;font-size: 10px;&quot;&gt;wait for partial sigs from others&lt;/span&gt;" style="edgeLabel;html=1;align=center;verticalAlign=middle;resizable=0;points=[];labelBackgroundColor=none;fontColor=#1A1A1A;fontSize=10;" vertex="1" connectable="0" parent="6G9ahUbNiyrmslpl5jez-216">
          <mxGeometry x="-0.6935" y="-1" relative="1" as="geometry">
            <mxPoint x="37" y="-9" as="offset" />
          </mxGeometry>
        </mxCell>
        <mxCell id="6G9ahUbNiyrmslpl5jez-118" value="&lt;span style=&quot;font-size: 10px;&quot;&gt;Starts&lt;/span&gt;" style="html=1;verticalAlign=bottom;endArrow=block;edgeStyle=elbowEdgeStyle;elbow=vertical;curved=0;rounded=0;labelBackgroundColor=none;fontColor=default;strokeColor=#182E3E;" edge="1" parent="1" source="6G9ahUbNiyrmslpl5jez-109" target="6G9ahUbNiyrmslpl5jez-113">
          <mxGeometry x="-0.6042" width="80" relative="1" as="geometry">
            <mxPoint x="130" y="1040" as="sourcePoint" />
            <mxPoint x="225" y="1040" as="targetPoint" />
            <mxPoint as="offset" />
            <Array as="points">
              <mxPoint x="160" y="1050" />
            </Array>
          </mxGeometry>
        </mxCell>
        <mxCell id="6G9ahUbNiyrmslpl5jez-119" value="" style="shape=umlLifeline;perimeter=lifelinePerimeter;whiteSpace=wrap;html=1;container=1;dropTarget=0;collapsible=0;recursiveResize=0;outlineConnect=0;portConstraint=eastwest;newEdgeStyle={&quot;edgeStyle&quot;:&quot;elbowEdgeStyle&quot;,&quot;elbow&quot;:&quot;vertical&quot;,&quot;curved&quot;:0,&quot;rounded&quot;:0};participant=umlEntity;labelBackgroundColor=none;fillColor=#F5AB50;strokeColor=#909090;fontColor=#1A1A1A;" vertex="1" parent="1">
          <mxGeometry x="350" y="975" width="40" height="1095" as="geometry" />
        </mxCell>
        <mxCell id="6G9ahUbNiyrmslpl5jez-120" value="" style="html=1;points=[];perimeter=orthogonalPerimeter;outlineConnect=0;targetShapes=umlLifeline;portConstraint=eastwest;newEdgeStyle={&quot;edgeStyle&quot;:&quot;elbowEdgeStyle&quot;,&quot;elbow&quot;:&quot;vertical&quot;,&quot;curved&quot;:0,&quot;rounded&quot;:0};labelBackgroundColor=none;fillColor=#F5AB50;strokeColor=#909090;fontColor=#1A1A1A;" vertex="1" parent="6G9ahUbNiyrmslpl5jez-119">
          <mxGeometry x="15" y="180" width="10" height="650" as="geometry" />
        </mxCell>
        <mxCell id="6G9ahUbNiyrmslpl5jez-121" value="" style="edgeStyle=none;orthogonalLoop=1;jettySize=auto;html=1;rounded=0;labelBackgroundColor=none;strokeColor=#182E3E;fontColor=default;" edge="1" parent="6G9ahUbNiyrmslpl5jez-119" source="6G9ahUbNiyrmslpl5jez-120" target="6G9ahUbNiyrmslpl5jez-120">
          <mxGeometry width="80" relative="1" as="geometry">
            <mxPoint x="35" y="465" as="sourcePoint" />
            <mxPoint x="35" y="475" as="targetPoint" />
            <Array as="points">
              <mxPoint x="130" y="465" />
              <mxPoint x="130" y="475" />
            </Array>
          </mxGeometry>
        </mxCell>
        <mxCell id="6G9ahUbNiyrmslpl5jez-122" value="send out msgs to other parties" style="edgeLabel;html=1;align=center;verticalAlign=middle;resizable=0;points=[];fontSize=10;labelBackgroundColor=none;fontColor=#1A1A1A;" vertex="1" connectable="0" parent="6G9ahUbNiyrmslpl5jez-121">
          <mxGeometry x="-0.5418" y="4" relative="1" as="geometry">
            <mxPoint x="24" y="-6" as="offset" />
          </mxGeometry>
        </mxCell>
        <mxCell id="6G9ahUbNiyrmslpl5jez-123" value="" style="edgeStyle=none;orthogonalLoop=1;jettySize=auto;html=1;rounded=0;labelBackgroundColor=none;strokeColor=#182E3E;fontColor=default;" edge="1" parent="6G9ahUbNiyrmslpl5jez-119" source="6G9ahUbNiyrmslpl5jez-120" target="6G9ahUbNiyrmslpl5jez-120">
          <mxGeometry width="80" relative="1" as="geometry">
            <mxPoint x="48" y="665" as="sourcePoint" />
            <mxPoint x="48" y="675" as="targetPoint" />
            <Array as="points">
              <mxPoint x="110" y="665" />
              <mxPoint x="110" y="675" />
            </Array>
          </mxGeometry>
        </mxCell>
        <mxCell id="6G9ahUbNiyrmslpl5jez-124" value="send out msgs to other parties" style="edgeLabel;html=1;align=center;verticalAlign=middle;resizable=0;points=[];fontSize=10;labelBackgroundColor=none;fontColor=#1A1A1A;" vertex="1" connectable="0" parent="6G9ahUbNiyrmslpl5jez-123">
          <mxGeometry x="-0.5418" y="4" relative="1" as="geometry">
            <mxPoint x="29" y="-6" as="offset" />
          </mxGeometry>
        </mxCell>
        <mxCell id="6G9ahUbNiyrmslpl5jez-125" value="" style="edgeStyle=none;orthogonalLoop=1;jettySize=auto;html=1;rounded=0;labelBackgroundColor=none;strokeColor=#182E3E;fontColor=default;" edge="1" parent="6G9ahUbNiyrmslpl5jez-119" source="6G9ahUbNiyrmslpl5jez-120" target="6G9ahUbNiyrmslpl5jez-120">
          <mxGeometry width="80" relative="1" as="geometry">
            <mxPoint x="10" y="755" as="sourcePoint" />
            <mxPoint x="-50" y="705" as="targetPoint" />
            <Array as="points">
              <mxPoint x="-50" y="785" />
              <mxPoint x="-50" y="355" />
            </Array>
          </mxGeometry>
        </mxCell>
        <mxCell id="6G9ahUbNiyrmslpl5jez-126" value="Loop if not finished" style="edgeLabel;html=1;align=center;verticalAlign=middle;resizable=0;points=[];labelBackgroundColor=none;fontColor=#1A1A1A;" vertex="1" connectable="0" parent="6G9ahUbNiyrmslpl5jez-125">
          <mxGeometry x="-0.8827" y="-2" relative="1" as="geometry">
            <mxPoint x="-22" y="12" as="offset" />
          </mxGeometry>
        </mxCell>
        <mxCell id="6G9ahUbNiyrmslpl5jez-127" value="Async round protocol&lt;br&gt;&lt;span style=&quot;font-size: 8px;&quot;&gt;crate:round_based&lt;/span&gt;" style="text;html=1;align=center;verticalAlign=middle;resizable=0;points=[];autosize=1;strokeColor=none;fillColor=none;labelBackgroundColor=none;fontColor=#1A1A1A;" vertex="1" parent="1">
          <mxGeometry x="305" y="935" width="140" height="40" as="geometry" />
        </mxCell>
        <mxCell id="6G9ahUbNiyrmslpl5jez-128" value="&lt;span style=&quot;font-size: 10px;&quot;&gt;Run (offline stage)&lt;/span&gt;" style="html=1;verticalAlign=bottom;endArrow=block;edgeStyle=elbowEdgeStyle;elbow=vertical;curved=0;rounded=0;labelBackgroundColor=none;fontColor=default;strokeColor=#182E3E;" edge="1" parent="1" source="6G9ahUbNiyrmslpl5jez-113" target="6G9ahUbNiyrmslpl5jez-120">
          <mxGeometry x="-0.3103" width="80" relative="1" as="geometry">
            <mxPoint x="240" y="1170" as="sourcePoint" />
            <mxPoint x="350" y="1170" as="targetPoint" />
            <mxPoint as="offset" />
            <Array as="points">
              <mxPoint x="290" y="1160" />
              <mxPoint x="300" y="1150" />
            </Array>
          </mxGeometry>
        </mxCell>
        <mxCell id="6G9ahUbNiyrmslpl5jez-129" value="" style="shape=umlLifeline;perimeter=lifelinePerimeter;whiteSpace=wrap;html=1;container=1;dropTarget=0;collapsible=0;recursiveResize=0;outlineConnect=0;portConstraint=eastwest;newEdgeStyle={&quot;edgeStyle&quot;:&quot;elbowEdgeStyle&quot;,&quot;elbow&quot;:&quot;vertical&quot;,&quot;curved&quot;:0,&quot;rounded&quot;:0};participant=umlEntity;labelBackgroundColor=none;fillColor=#F5AB50;strokeColor=#909090;fontColor=#1A1A1A;" vertex="1" parent="1">
          <mxGeometry x="480" y="975" width="40" height="1095" as="geometry" />
        </mxCell>
        <mxCell id="6G9ahUbNiyrmslpl5jez-130" value="" style="html=1;points=[];perimeter=orthogonalPerimeter;outlineConnect=0;targetShapes=umlLifeline;portConstraint=eastwest;newEdgeStyle={&quot;edgeStyle&quot;:&quot;elbowEdgeStyle&quot;,&quot;elbow&quot;:&quot;vertical&quot;,&quot;curved&quot;:0,&quot;rounded&quot;:0};labelBackgroundColor=none;fillColor=#F5AB50;strokeColor=#909090;fontColor=#1A1A1A;" vertex="1" parent="6G9ahUbNiyrmslpl5jez-129">
          <mxGeometry x="15" y="210" width="10" height="50" as="geometry" />
        </mxCell>
        <mxCell id="6G9ahUbNiyrmslpl5jez-131" value="" style="html=1;points=[];perimeter=orthogonalPerimeter;outlineConnect=0;targetShapes=umlLifeline;portConstraint=eastwest;newEdgeStyle={&quot;edgeStyle&quot;:&quot;elbowEdgeStyle&quot;,&quot;elbow&quot;:&quot;vertical&quot;,&quot;curved&quot;:0,&quot;rounded&quot;:0};labelBackgroundColor=none;fillColor=#F5AB50;strokeColor=#909090;fontColor=#1A1A1A;" vertex="1" parent="6G9ahUbNiyrmslpl5jez-129">
          <mxGeometry x="15" y="275" width="10" height="35" as="geometry" />
        </mxCell>
        <mxCell id="6G9ahUbNiyrmslpl5jez-132" value="" style="html=1;points=[];perimeter=orthogonalPerimeter;outlineConnect=0;targetShapes=umlLifeline;portConstraint=eastwest;newEdgeStyle={&quot;edgeStyle&quot;:&quot;elbowEdgeStyle&quot;,&quot;elbow&quot;:&quot;vertical&quot;,&quot;curved&quot;:0,&quot;rounded&quot;:0};labelBackgroundColor=none;fillColor=#F5AB50;strokeColor=#909090;fontColor=#1A1A1A;" vertex="1" parent="6G9ahUbNiyrmslpl5jez-129">
          <mxGeometry x="15" y="405" width="10" height="35" as="geometry" />
        </mxCell>
        <mxCell id="6G9ahUbNiyrmslpl5jez-201" value="" style="html=1;points=[];perimeter=orthogonalPerimeter;outlineConnect=0;targetShapes=umlLifeline;portConstraint=eastwest;newEdgeStyle={&quot;edgeStyle&quot;:&quot;elbowEdgeStyle&quot;,&quot;elbow&quot;:&quot;vertical&quot;,&quot;curved&quot;:0,&quot;rounded&quot;:0};labelBackgroundColor=none;fillColor=#F5AB50;strokeColor=#909090;fontColor=#1A1A1A;" vertex="1" parent="6G9ahUbNiyrmslpl5jez-129">
          <mxGeometry x="15" y="932" width="10" height="25" as="geometry" />
        </mxCell>
        <mxCell id="6G9ahUbNiyrmslpl5jez-218" value="" style="html=1;points=[];perimeter=orthogonalPerimeter;outlineConnect=0;targetShapes=umlLifeline;portConstraint=eastwest;newEdgeStyle={&quot;edgeStyle&quot;:&quot;elbowEdgeStyle&quot;,&quot;elbow&quot;:&quot;vertical&quot;,&quot;curved&quot;:0,&quot;rounded&quot;:0};labelBackgroundColor=none;fillColor=#F5AB50;strokeColor=#909090;fontColor=#1A1A1A;" vertex="1" parent="6G9ahUbNiyrmslpl5jez-129">
          <mxGeometry x="15" y="1036" width="10" height="25" as="geometry" />
        </mxCell>
        <mxCell id="6G9ahUbNiyrmslpl5jez-133" value="Signing state machine&lt;br&gt;&lt;span style=&quot;font-size: 8px;&quot;&gt;gg_2020.signing&lt;/span&gt;" style="text;html=1;align=center;verticalAlign=middle;resizable=0;points=[];autosize=1;strokeColor=none;fillColor=none;labelBackgroundColor=none;fontColor=#1A1A1A;" vertex="1" parent="1">
          <mxGeometry x="430" y="935" width="140" height="40" as="geometry" />
        </mxCell>
        <mxCell id="6G9ahUbNiyrmslpl5jez-134" value="" style="html=1;points=[];perimeter=orthogonalPerimeter;outlineConnect=0;targetShapes=umlLifeline;portConstraint=eastwest;newEdgeStyle={&quot;edgeStyle&quot;:&quot;elbowEdgeStyle&quot;,&quot;elbow&quot;:&quot;vertical&quot;,&quot;curved&quot;:0,&quot;rounded&quot;:0};labelBackgroundColor=none;fillColor=#F5AB50;strokeColor=#909090;fontColor=#1A1A1A;" vertex="1" parent="1">
          <mxGeometry x="390" y="1170" width="10" height="130" as="geometry" />
        </mxCell>
        <mxCell id="6G9ahUbNiyrmslpl5jez-135" value="" style="edgeStyle=none;orthogonalLoop=1;jettySize=auto;html=1;rounded=0;labelBackgroundColor=none;strokeColor=#182E3E;fontColor=default;" edge="1" parent="1" source="6G9ahUbNiyrmslpl5jez-120" target="6G9ahUbNiyrmslpl5jez-134">
          <mxGeometry width="80" relative="1" as="geometry">
            <mxPoint x="420" y="1160" as="sourcePoint" />
            <mxPoint x="550" y="1170" as="targetPoint" />
            <Array as="points">
              <mxPoint x="460" y="1160" />
              <mxPoint x="460" y="1180" />
            </Array>
          </mxGeometry>
        </mxCell>
        <mxCell id="6G9ahUbNiyrmslpl5jez-136" value="proceed_if_needed" style="edgeLabel;html=1;align=center;verticalAlign=middle;resizable=0;points=[];fontSize=10;labelBackgroundColor=none;fontColor=#1A1A1A;" vertex="1" connectable="0" parent="6G9ahUbNiyrmslpl5jez-135">
          <mxGeometry x="-0.5418" y="4" relative="1" as="geometry">
            <mxPoint x="7" y="-6" as="offset" />
          </mxGeometry>
        </mxCell>
        <mxCell id="6G9ahUbNiyrmslpl5jez-137" value="" style="edgeStyle=none;orthogonalLoop=1;jettySize=auto;html=1;rounded=0;labelBackgroundColor=none;strokeColor=#182E3E;fontColor=default;" edge="1" parent="1" source="6G9ahUbNiyrmslpl5jez-134" target="6G9ahUbNiyrmslpl5jez-130">
          <mxGeometry width="80" relative="1" as="geometry">
            <mxPoint x="410" y="1190" as="sourcePoint" />
            <mxPoint x="490" y="1190" as="targetPoint" />
            <Array as="points">
              <mxPoint x="450" y="1210" />
            </Array>
          </mxGeometry>
        </mxCell>
        <mxCell id="6G9ahUbNiyrmslpl5jez-138" value="wants_to_proceed" style="edgeLabel;html=1;align=center;verticalAlign=middle;resizable=0;points=[];fontSize=10;labelBackgroundColor=none;fontColor=#1A1A1A;" vertex="1" connectable="0" parent="6G9ahUbNiyrmslpl5jez-137">
          <mxGeometry x="-0.1474" y="1" relative="1" as="geometry">
            <mxPoint x="4" y="-9" as="offset" />
          </mxGeometry>
        </mxCell>
        <mxCell id="6G9ahUbNiyrmslpl5jez-139" value="" style="edgeStyle=none;orthogonalLoop=1;jettySize=auto;html=1;rounded=0;dashed=1;startArrow=none;startFill=0;endArrow=classic;endFill=1;labelBackgroundColor=none;strokeColor=#182E3E;fontColor=default;" edge="1" parent="1">
          <mxGeometry width="80" relative="1" as="geometry">
            <mxPoint x="495" y="1230" as="sourcePoint" />
            <mxPoint x="400" y="1230" as="targetPoint" />
            <Array as="points">
              <mxPoint x="450" y="1230" />
            </Array>
          </mxGeometry>
        </mxCell>
        <mxCell id="6G9ahUbNiyrmslpl5jez-140" value="returns" style="edgeLabel;html=1;align=center;verticalAlign=middle;resizable=0;points=[];fontSize=10;labelBackgroundColor=none;fontColor=#1A1A1A;" vertex="1" connectable="0" parent="6G9ahUbNiyrmslpl5jez-139">
          <mxGeometry x="-0.3614" y="2" relative="1" as="geometry">
            <mxPoint x="-20" y="-12" as="offset" />
          </mxGeometry>
        </mxCell>
        <mxCell id="6G9ahUbNiyrmslpl5jez-141" value="" style="edgeStyle=none;orthogonalLoop=1;jettySize=auto;html=1;rounded=0;labelBackgroundColor=none;strokeColor=#182E3E;fontColor=default;" edge="1" parent="1" source="6G9ahUbNiyrmslpl5jez-134" target="6G9ahUbNiyrmslpl5jez-131">
          <mxGeometry width="80" relative="1" as="geometry">
            <mxPoint x="410" y="1260" as="sourcePoint" />
            <mxPoint x="505" y="1260" as="targetPoint" />
            <Array as="points">
              <mxPoint x="460" y="1260" />
            </Array>
          </mxGeometry>
        </mxCell>
        <mxCell id="6G9ahUbNiyrmslpl5jez-142" value="proceed" style="edgeLabel;html=1;align=center;verticalAlign=middle;resizable=0;points=[];fontSize=10;labelBackgroundColor=none;fontColor=#1A1A1A;" vertex="1" connectable="0" parent="6G9ahUbNiyrmslpl5jez-141">
          <mxGeometry x="-0.1474" y="1" relative="1" as="geometry">
            <mxPoint x="4" y="-9" as="offset" />
          </mxGeometry>
        </mxCell>
        <mxCell id="6G9ahUbNiyrmslpl5jez-143" value="" style="shape=umlLifeline;perimeter=lifelinePerimeter;whiteSpace=wrap;html=1;container=1;dropTarget=0;collapsible=0;recursiveResize=0;outlineConnect=0;portConstraint=eastwest;newEdgeStyle={&quot;edgeStyle&quot;:&quot;elbowEdgeStyle&quot;,&quot;elbow&quot;:&quot;vertical&quot;,&quot;curved&quot;:0,&quot;rounded&quot;:0};participant=umlEntity;labelBackgroundColor=none;fillColor=#F5AB50;strokeColor=#909090;fontColor=#1A1A1A;" vertex="1" parent="1">
          <mxGeometry x="600" y="975" width="40" height="1095" as="geometry" />
        </mxCell>
        <mxCell id="6G9ahUbNiyrmslpl5jez-144" value="" style="html=1;points=[];perimeter=orthogonalPerimeter;outlineConnect=0;targetShapes=umlLifeline;portConstraint=eastwest;newEdgeStyle={&quot;edgeStyle&quot;:&quot;elbowEdgeStyle&quot;,&quot;elbow&quot;:&quot;vertical&quot;,&quot;curved&quot;:0,&quot;rounded&quot;:0};labelBackgroundColor=none;fillColor=#F5AB50;strokeColor=#909090;fontColor=#1A1A1A;" vertex="1" parent="6G9ahUbNiyrmslpl5jez-143">
          <mxGeometry x="15" y="275" width="10" height="35" as="geometry" />
        </mxCell>
        <mxCell id="6G9ahUbNiyrmslpl5jez-219" value="" style="html=1;points=[];perimeter=orthogonalPerimeter;outlineConnect=0;targetShapes=umlLifeline;portConstraint=eastwest;newEdgeStyle={&quot;edgeStyle&quot;:&quot;elbowEdgeStyle&quot;,&quot;elbow&quot;:&quot;vertical&quot;,&quot;curved&quot;:0,&quot;rounded&quot;:0};labelBackgroundColor=none;fillColor=#F5AB50;strokeColor=#909090;fontColor=#1A1A1A;" vertex="1" parent="6G9ahUbNiyrmslpl5jez-143">
          <mxGeometry x="15" y="935" width="10" height="15" as="geometry" />
        </mxCell>
        <mxCell id="6G9ahUbNiyrmslpl5jez-228" value="" style="html=1;points=[];perimeter=orthogonalPerimeter;outlineConnect=0;targetShapes=umlLifeline;portConstraint=eastwest;newEdgeStyle={&quot;edgeStyle&quot;:&quot;elbowEdgeStyle&quot;,&quot;elbow&quot;:&quot;vertical&quot;,&quot;curved&quot;:0,&quot;rounded&quot;:0};labelBackgroundColor=none;fillColor=#F5AB50;strokeColor=#909090;fontColor=#1A1A1A;" vertex="1" parent="6G9ahUbNiyrmslpl5jez-143">
          <mxGeometry x="15" y="1033" width="10" height="28" as="geometry" />
        </mxCell>
        <mxCell id="3hhCwOBt2ciwGGJCHa39-1" value="" style="edgeStyle=none;orthogonalLoop=1;jettySize=auto;html=1;rounded=0;labelBackgroundColor=none;fontColor=default;strokeColor=#182E3E;" edge="1" parent="6G9ahUbNiyrmslpl5jez-143">
          <mxGeometry width="80" relative="1" as="geometry">
            <mxPoint x="25" y="1043" as="sourcePoint" />
            <mxPoint x="25" y="1053" as="targetPoint" />
            <Array as="points">
              <mxPoint x="70" y="1043" />
              <mxPoint x="130" y="1043" />
              <mxPoint x="130" y="1053" />
            </Array>
          </mxGeometry>
        </mxCell>
        <mxCell id="3hhCwOBt2ciwGGJCHa39-2" value="&lt;span style=&quot;font-size: 10px;&quot;&gt;combine signatures parts&lt;/span&gt;" style="edgeLabel;html=1;align=center;verticalAlign=middle;resizable=0;points=[];labelBackgroundColor=none;fontColor=#1A1A1A;fontSize=10;" connectable="0" vertex="1" parent="3hhCwOBt2ciwGGJCHa39-1">
          <mxGeometry x="-0.6935" y="-1" relative="1" as="geometry">
            <mxPoint x="25" y="-8" as="offset" />
          </mxGeometry>
        </mxCell>
        <mxCell id="6G9ahUbNiyrmslpl5jez-145" value="Rounds&lt;br&gt;&lt;span style=&quot;font-size: 8px;&quot;&gt;gg_2020.signing.rounds&lt;/span&gt;" style="text;html=1;align=center;verticalAlign=middle;resizable=0;points=[];autosize=1;strokeColor=none;fillColor=none;labelBackgroundColor=none;fontColor=#1A1A1A;" vertex="1" parent="1">
          <mxGeometry x="565" y="935" width="110" height="40" as="geometry" />
        </mxCell>
        <mxCell id="6G9ahUbNiyrmslpl5jez-146" value="" style="edgeStyle=none;orthogonalLoop=1;jettySize=auto;html=1;rounded=0;labelBackgroundColor=none;strokeColor=#182E3E;fontColor=default;" edge="1" parent="1" source="6G9ahUbNiyrmslpl5jez-131" target="6G9ahUbNiyrmslpl5jez-144">
          <mxGeometry width="80" relative="1" as="geometry">
            <mxPoint x="520" y="1260" as="sourcePoint" />
            <mxPoint x="615" y="1260" as="targetPoint" />
            <Array as="points">
              <mxPoint x="580" y="1260" />
            </Array>
          </mxGeometry>
        </mxCell>
        <mxCell id="6G9ahUbNiyrmslpl5jez-147" value="round*.proceed" style="edgeLabel;html=1;align=center;verticalAlign=middle;resizable=0;points=[];fontSize=10;labelBackgroundColor=none;fontColor=#1A1A1A;" vertex="1" connectable="0" parent="6G9ahUbNiyrmslpl5jez-146">
          <mxGeometry x="-0.1474" y="1" relative="1" as="geometry">
            <mxPoint x="4" y="-9" as="offset" />
          </mxGeometry>
        </mxCell>
        <mxCell id="6G9ahUbNiyrmslpl5jez-148" value="" style="edgeStyle=none;orthogonalLoop=1;jettySize=auto;html=1;rounded=0;labelBackgroundColor=none;fontColor=default;strokeColor=#182E3E;" edge="1" parent="1" target="6G9ahUbNiyrmslpl5jez-144">
          <mxGeometry width="80" relative="1" as="geometry">
            <mxPoint x="625" y="1265" as="sourcePoint" />
            <mxPoint x="625" y="1285" as="targetPoint" />
            <Array as="points">
              <mxPoint x="720" y="1265" />
              <mxPoint x="720" y="1280" />
            </Array>
          </mxGeometry>
        </mxCell>
        <mxCell id="6G9ahUbNiyrmslpl5jez-149" value="&lt;span style=&quot;font-size: 10px;&quot;&gt;sends messages if needed to stream&lt;/span&gt;" style="edgeLabel;html=1;align=center;verticalAlign=middle;resizable=0;points=[];labelBackgroundColor=none;fontColor=#1A1A1A;fontSize=10;" vertex="1" connectable="0" parent="6G9ahUbNiyrmslpl5jez-148">
          <mxGeometry x="-0.6935" y="-1" relative="1" as="geometry">
            <mxPoint x="53" y="-16" as="offset" />
          </mxGeometry>
        </mxCell>
        <mxCell id="6G9ahUbNiyrmslpl5jez-150" value="" style="edgeStyle=none;orthogonalLoop=1;jettySize=auto;html=1;rounded=0;dashed=1;startArrow=none;startFill=0;endArrow=classic;endFill=1;labelBackgroundColor=none;strokeColor=#182E3E;fontColor=default;" edge="1" parent="1" source="6G9ahUbNiyrmslpl5jez-144" target="6G9ahUbNiyrmslpl5jez-131">
          <mxGeometry width="80" relative="1" as="geometry">
            <mxPoint x="615" y="1280" as="sourcePoint" />
            <mxPoint x="520" y="1280" as="targetPoint" />
            <Array as="points">
              <mxPoint x="570" y="1280" />
            </Array>
          </mxGeometry>
        </mxCell>
        <mxCell id="6G9ahUbNiyrmslpl5jez-151" value="returns" style="edgeLabel;html=1;align=center;verticalAlign=middle;resizable=0;points=[];fontSize=10;labelBackgroundColor=none;fontColor=#1A1A1A;" vertex="1" connectable="0" parent="6G9ahUbNiyrmslpl5jez-150">
          <mxGeometry x="-0.3614" y="2" relative="1" as="geometry">
            <mxPoint x="-20" y="-12" as="offset" />
          </mxGeometry>
        </mxCell>
        <mxCell id="6G9ahUbNiyrmslpl5jez-152" value="" style="edgeStyle=none;orthogonalLoop=1;jettySize=auto;html=1;rounded=0;dashed=1;startArrow=none;startFill=0;endArrow=classic;endFill=1;labelBackgroundColor=none;strokeColor=#182E3E;fontColor=default;" edge="1" parent="1" source="6G9ahUbNiyrmslpl5jez-131" target="6G9ahUbNiyrmslpl5jez-134">
          <mxGeometry width="80" relative="1" as="geometry">
            <mxPoint x="625" y="1290" as="sourcePoint" />
            <mxPoint x="515" y="1290" as="targetPoint" />
            <Array as="points">
              <mxPoint x="460" y="1280" />
            </Array>
          </mxGeometry>
        </mxCell>
        <mxCell id="6G9ahUbNiyrmslpl5jez-153" value="returns" style="edgeLabel;html=1;align=center;verticalAlign=middle;resizable=0;points=[];fontSize=10;labelBackgroundColor=none;fontColor=#1A1A1A;" vertex="1" connectable="0" parent="6G9ahUbNiyrmslpl5jez-152">
          <mxGeometry x="-0.3614" y="2" relative="1" as="geometry">
            <mxPoint x="-20" y="-12" as="offset" />
          </mxGeometry>
        </mxCell>
        <mxCell id="6G9ahUbNiyrmslpl5jez-154" value="" style="edgeStyle=none;orthogonalLoop=1;jettySize=auto;html=1;rounded=0;dashed=1;startArrow=none;startFill=0;endArrow=classic;endFill=1;labelBackgroundColor=none;strokeColor=#182E3E;fontColor=default;" edge="1" parent="1" source="6G9ahUbNiyrmslpl5jez-134" target="6G9ahUbNiyrmslpl5jez-120">
          <mxGeometry width="80" relative="1" as="geometry">
            <mxPoint x="505" y="1290" as="sourcePoint" />
            <mxPoint x="410" y="1290" as="targetPoint" />
            <Array as="points">
              <mxPoint x="380" y="1290" />
            </Array>
          </mxGeometry>
        </mxCell>
        <mxCell id="6G9ahUbNiyrmslpl5jez-155" value="returns" style="edgeLabel;html=1;align=center;verticalAlign=middle;resizable=0;points=[];fontSize=10;labelBackgroundColor=none;fontColor=#1A1A1A;" vertex="1" connectable="0" parent="6G9ahUbNiyrmslpl5jez-154">
          <mxGeometry x="-0.3614" y="2" relative="1" as="geometry">
            <mxPoint x="-3" y="-12" as="offset" />
          </mxGeometry>
        </mxCell>
        <mxCell id="6G9ahUbNiyrmslpl5jez-156" value="" style="edgeStyle=none;orthogonalLoop=1;jettySize=auto;html=1;rounded=0;labelBackgroundColor=none;strokeColor=#182E3E;fontColor=default;" edge="1" parent="1">
          <mxGeometry width="80" relative="1" as="geometry">
            <mxPoint x="375" y="1320" as="sourcePoint" />
            <mxPoint x="375" y="1330" as="targetPoint" />
            <Array as="points">
              <mxPoint x="470" y="1320" />
              <mxPoint x="470" y="1330" />
            </Array>
          </mxGeometry>
        </mxCell>
        <mxCell id="6G9ahUbNiyrmslpl5jez-157" value="send out msgs to other parties" style="edgeLabel;html=1;align=center;verticalAlign=middle;resizable=0;points=[];fontSize=10;labelBackgroundColor=none;fontColor=#1A1A1A;" vertex="1" connectable="0" parent="6G9ahUbNiyrmslpl5jez-156">
          <mxGeometry x="-0.5418" y="4" relative="1" as="geometry">
            <mxPoint x="24" y="-6" as="offset" />
          </mxGeometry>
        </mxCell>
        <mxCell id="6G9ahUbNiyrmslpl5jez-158" value="" style="html=1;points=[];perimeter=orthogonalPerimeter;outlineConnect=0;targetShapes=umlLifeline;portConstraint=eastwest;newEdgeStyle={&quot;edgeStyle&quot;:&quot;elbowEdgeStyle&quot;,&quot;elbow&quot;:&quot;vertical&quot;,&quot;curved&quot;:0,&quot;rounded&quot;:0};labelBackgroundColor=none;fillColor=#F5AB50;strokeColor=#909090;fontColor=#1A1A1A;" vertex="1" parent="1">
          <mxGeometry x="390" y="1365" width="10" height="55" as="geometry" />
        </mxCell>
        <mxCell id="6G9ahUbNiyrmslpl5jez-159" value="" style="edgeStyle=none;orthogonalLoop=1;jettySize=auto;html=1;rounded=0;labelBackgroundColor=none;strokeColor=#182E3E;fontColor=default;" edge="1" parent="1" source="6G9ahUbNiyrmslpl5jez-120" target="6G9ahUbNiyrmslpl5jez-158">
          <mxGeometry width="80" relative="1" as="geometry">
            <mxPoint x="370" y="1350" as="sourcePoint" />
            <mxPoint x="415" y="1380" as="targetPoint" />
            <Array as="points">
              <mxPoint x="420" y="1350" />
              <mxPoint x="475" y="1350" />
              <mxPoint x="475" y="1370" />
            </Array>
          </mxGeometry>
        </mxCell>
        <mxCell id="6G9ahUbNiyrmslpl5jez-160" value="handle_incoming" style="edgeLabel;html=1;align=center;verticalAlign=middle;resizable=0;points=[];fontSize=10;labelBackgroundColor=none;fontColor=#1A1A1A;" vertex="1" connectable="0" parent="6G9ahUbNiyrmslpl5jez-159">
          <mxGeometry x="-0.5418" y="4" relative="1" as="geometry">
            <mxPoint x="7" y="-6" as="offset" />
          </mxGeometry>
        </mxCell>
        <mxCell id="6G9ahUbNiyrmslpl5jez-161" value="" style="edgeStyle=none;orthogonalLoop=1;jettySize=auto;html=1;rounded=0;labelBackgroundColor=none;strokeColor=#182E3E;fontColor=default;" edge="1" parent="1">
          <mxGeometry width="80" relative="1" as="geometry">
            <mxPoint x="400" y="1390.58" as="sourcePoint" />
            <mxPoint x="495" y="1390.58" as="targetPoint" />
            <Array as="points">
              <mxPoint x="460" y="1390.58" />
            </Array>
          </mxGeometry>
        </mxCell>
        <mxCell id="6G9ahUbNiyrmslpl5jez-162" value="handle_incoming" style="edgeLabel;html=1;align=center;verticalAlign=middle;resizable=0;points=[];fontSize=10;labelBackgroundColor=none;fontColor=#1A1A1A;" vertex="1" connectable="0" parent="6G9ahUbNiyrmslpl5jez-161">
          <mxGeometry x="-0.1474" y="1" relative="1" as="geometry">
            <mxPoint x="4" y="-9" as="offset" />
          </mxGeometry>
        </mxCell>
        <mxCell id="6G9ahUbNiyrmslpl5jez-163" value="" style="edgeStyle=none;orthogonalLoop=1;jettySize=auto;html=1;rounded=0;dashed=1;startArrow=none;startFill=0;endArrow=classic;endFill=1;labelBackgroundColor=none;strokeColor=#182E3E;fontColor=default;" edge="1" parent="1" source="6G9ahUbNiyrmslpl5jez-132" target="6G9ahUbNiyrmslpl5jez-158">
          <mxGeometry width="80" relative="1" as="geometry">
            <mxPoint x="625" y="1290" as="sourcePoint" />
            <mxPoint x="515" y="1290" as="targetPoint" />
            <Array as="points">
              <mxPoint x="460" y="1410" />
            </Array>
          </mxGeometry>
        </mxCell>
        <mxCell id="6G9ahUbNiyrmslpl5jez-164" value="returns" style="edgeLabel;html=1;align=center;verticalAlign=middle;resizable=0;points=[];fontSize=10;labelBackgroundColor=none;fontColor=#1A1A1A;" vertex="1" connectable="0" parent="6G9ahUbNiyrmslpl5jez-163">
          <mxGeometry x="-0.3614" y="2" relative="1" as="geometry">
            <mxPoint x="-20" y="-12" as="offset" />
          </mxGeometry>
        </mxCell>
        <mxCell id="6G9ahUbNiyrmslpl5jez-165" value="" style="edgeStyle=none;orthogonalLoop=1;jettySize=auto;html=1;rounded=0;dashed=1;startArrow=none;startFill=0;endArrow=classic;endFill=1;labelBackgroundColor=none;strokeColor=#182E3E;fontColor=default;" edge="1" parent="1" source="6G9ahUbNiyrmslpl5jez-158" target="6G9ahUbNiyrmslpl5jez-120">
          <mxGeometry width="80" relative="1" as="geometry">
            <mxPoint x="400" y="1300" as="sourcePoint" />
            <mxPoint x="385" y="1300" as="targetPoint" />
            <Array as="points">
              <mxPoint x="380" y="1410" />
            </Array>
          </mxGeometry>
        </mxCell>
        <mxCell id="6G9ahUbNiyrmslpl5jez-166" value="returns" style="edgeLabel;html=1;align=center;verticalAlign=middle;resizable=0;points=[];fontSize=10;labelBackgroundColor=none;fontColor=#1A1A1A;" vertex="1" connectable="0" parent="6G9ahUbNiyrmslpl5jez-165">
          <mxGeometry x="-0.3614" y="2" relative="1" as="geometry">
            <mxPoint x="-3" y="-12" as="offset" />
          </mxGeometry>
        </mxCell>
        <mxCell id="6G9ahUbNiyrmslpl5jez-167" value="" style="html=1;points=[];perimeter=orthogonalPerimeter;outlineConnect=0;targetShapes=umlLifeline;portConstraint=eastwest;newEdgeStyle={&quot;edgeStyle&quot;:&quot;elbowEdgeStyle&quot;,&quot;elbow&quot;:&quot;vertical&quot;,&quot;curved&quot;:0,&quot;rounded&quot;:0};labelBackgroundColor=none;fillColor=#F5AB50;strokeColor=#909090;fontColor=#1A1A1A;" vertex="1" parent="1">
          <mxGeometry x="503" y="1505" width="10" height="50" as="geometry" />
        </mxCell>
        <mxCell id="6G9ahUbNiyrmslpl5jez-168" value="" style="html=1;points=[];perimeter=orthogonalPerimeter;outlineConnect=0;targetShapes=umlLifeline;portConstraint=eastwest;newEdgeStyle={&quot;edgeStyle&quot;:&quot;elbowEdgeStyle&quot;,&quot;elbow&quot;:&quot;vertical&quot;,&quot;curved&quot;:0,&quot;rounded&quot;:0};labelBackgroundColor=none;fillColor=#F5AB50;strokeColor=#909090;fontColor=#1A1A1A;" vertex="1" parent="1">
          <mxGeometry x="503" y="1570" width="10" height="35" as="geometry" />
        </mxCell>
        <mxCell id="6G9ahUbNiyrmslpl5jez-169" value="" style="html=1;points=[];perimeter=orthogonalPerimeter;outlineConnect=0;targetShapes=umlLifeline;portConstraint=eastwest;newEdgeStyle={&quot;edgeStyle&quot;:&quot;elbowEdgeStyle&quot;,&quot;elbow&quot;:&quot;vertical&quot;,&quot;curved&quot;:0,&quot;rounded&quot;:0};labelBackgroundColor=none;fillColor=#F5AB50;strokeColor=#909090;fontColor=#1A1A1A;" vertex="1" parent="1">
          <mxGeometry x="398" y="1490" width="10" height="120" as="geometry" />
        </mxCell>
        <mxCell id="6G9ahUbNiyrmslpl5jez-170" value="" style="edgeStyle=none;orthogonalLoop=1;jettySize=auto;html=1;rounded=0;labelBackgroundColor=none;strokeColor=#182E3E;fontColor=default;" edge="1" parent="1" source="6G9ahUbNiyrmslpl5jez-169" target="6G9ahUbNiyrmslpl5jez-167">
          <mxGeometry width="80" relative="1" as="geometry">
            <mxPoint x="418" y="1510" as="sourcePoint" />
            <mxPoint x="498" y="1510" as="targetPoint" />
            <Array as="points">
              <mxPoint x="458" y="1530" />
            </Array>
          </mxGeometry>
        </mxCell>
        <mxCell id="6G9ahUbNiyrmslpl5jez-171" value="wants_to_proceed" style="edgeLabel;html=1;align=center;verticalAlign=middle;resizable=0;points=[];fontSize=10;labelBackgroundColor=none;fontColor=#1A1A1A;" vertex="1" connectable="0" parent="6G9ahUbNiyrmslpl5jez-170">
          <mxGeometry x="-0.1474" y="1" relative="1" as="geometry">
            <mxPoint x="4" y="-9" as="offset" />
          </mxGeometry>
        </mxCell>
        <mxCell id="6G9ahUbNiyrmslpl5jez-172" value="" style="edgeStyle=none;orthogonalLoop=1;jettySize=auto;html=1;rounded=0;dashed=1;startArrow=none;startFill=0;endArrow=classic;endFill=1;labelBackgroundColor=none;strokeColor=#182E3E;fontColor=default;" edge="1" parent="1">
          <mxGeometry width="80" relative="1" as="geometry">
            <mxPoint x="503" y="1550" as="sourcePoint" />
            <mxPoint x="408" y="1550" as="targetPoint" />
            <Array as="points">
              <mxPoint x="458" y="1550" />
            </Array>
          </mxGeometry>
        </mxCell>
        <mxCell id="6G9ahUbNiyrmslpl5jez-173" value="returns" style="edgeLabel;html=1;align=center;verticalAlign=middle;resizable=0;points=[];fontSize=10;labelBackgroundColor=none;fontColor=#1A1A1A;" vertex="1" connectable="0" parent="6G9ahUbNiyrmslpl5jez-172">
          <mxGeometry x="-0.3614" y="2" relative="1" as="geometry">
            <mxPoint x="-20" y="-12" as="offset" />
          </mxGeometry>
        </mxCell>
        <mxCell id="6G9ahUbNiyrmslpl5jez-174" value="" style="edgeStyle=none;orthogonalLoop=1;jettySize=auto;html=1;rounded=0;labelBackgroundColor=none;strokeColor=#182E3E;fontColor=default;" edge="1" parent="1" source="6G9ahUbNiyrmslpl5jez-169" target="6G9ahUbNiyrmslpl5jez-168">
          <mxGeometry width="80" relative="1" as="geometry">
            <mxPoint x="418" y="1580" as="sourcePoint" />
            <mxPoint x="513" y="1580" as="targetPoint" />
            <Array as="points">
              <mxPoint x="468" y="1580" />
            </Array>
          </mxGeometry>
        </mxCell>
        <mxCell id="6G9ahUbNiyrmslpl5jez-175" value="proceed" style="edgeLabel;html=1;align=center;verticalAlign=middle;resizable=0;points=[];fontSize=10;labelBackgroundColor=none;fontColor=#1A1A1A;" vertex="1" connectable="0" parent="6G9ahUbNiyrmslpl5jez-174">
          <mxGeometry x="-0.1474" y="1" relative="1" as="geometry">
            <mxPoint x="4" y="-9" as="offset" />
          </mxGeometry>
        </mxCell>
        <mxCell id="6G9ahUbNiyrmslpl5jez-176" value="" style="html=1;points=[];perimeter=orthogonalPerimeter;outlineConnect=0;targetShapes=umlLifeline;portConstraint=eastwest;newEdgeStyle={&quot;edgeStyle&quot;:&quot;elbowEdgeStyle&quot;,&quot;elbow&quot;:&quot;vertical&quot;,&quot;curved&quot;:0,&quot;rounded&quot;:0};labelBackgroundColor=none;fillColor=#F5AB50;strokeColor=#909090;fontColor=#1A1A1A;" vertex="1" parent="1">
          <mxGeometry x="623" y="1570" width="10" height="35" as="geometry" />
        </mxCell>
        <mxCell id="6G9ahUbNiyrmslpl5jez-177" value="" style="edgeStyle=none;orthogonalLoop=1;jettySize=auto;html=1;rounded=0;labelBackgroundColor=none;strokeColor=#182E3E;fontColor=default;" edge="1" parent="1" source="6G9ahUbNiyrmslpl5jez-168" target="6G9ahUbNiyrmslpl5jez-176">
          <mxGeometry width="80" relative="1" as="geometry">
            <mxPoint x="528" y="1580" as="sourcePoint" />
            <mxPoint x="623" y="1580" as="targetPoint" />
            <Array as="points">
              <mxPoint x="588" y="1580" />
            </Array>
          </mxGeometry>
        </mxCell>
        <mxCell id="6G9ahUbNiyrmslpl5jez-178" value="round*.proceed" style="edgeLabel;html=1;align=center;verticalAlign=middle;resizable=0;points=[];fontSize=10;labelBackgroundColor=none;fontColor=#1A1A1A;" vertex="1" connectable="0" parent="6G9ahUbNiyrmslpl5jez-177">
          <mxGeometry x="-0.1474" y="1" relative="1" as="geometry">
            <mxPoint x="4" y="-9" as="offset" />
          </mxGeometry>
        </mxCell>
        <mxCell id="6G9ahUbNiyrmslpl5jez-179" value="" style="edgeStyle=none;orthogonalLoop=1;jettySize=auto;html=1;rounded=0;labelBackgroundColor=none;fontColor=default;strokeColor=#182E3E;" edge="1" parent="1" target="6G9ahUbNiyrmslpl5jez-176">
          <mxGeometry width="80" relative="1" as="geometry">
            <mxPoint x="633" y="1585" as="sourcePoint" />
            <mxPoint x="633" y="1605" as="targetPoint" />
            <Array as="points">
              <mxPoint x="728" y="1585" />
              <mxPoint x="728" y="1600" />
            </Array>
          </mxGeometry>
        </mxCell>
        <mxCell id="6G9ahUbNiyrmslpl5jez-180" value="&lt;span style=&quot;font-size: 10px;&quot;&gt;sends messages if needed to stream&lt;/span&gt;" style="edgeLabel;html=1;align=center;verticalAlign=middle;resizable=0;points=[];labelBackgroundColor=none;fontColor=#1A1A1A;fontSize=10;" vertex="1" connectable="0" parent="6G9ahUbNiyrmslpl5jez-179">
          <mxGeometry x="-0.6935" y="-1" relative="1" as="geometry">
            <mxPoint x="53" y="-16" as="offset" />
          </mxGeometry>
        </mxCell>
        <mxCell id="6G9ahUbNiyrmslpl5jez-181" value="" style="edgeStyle=none;orthogonalLoop=1;jettySize=auto;html=1;rounded=0;dashed=1;startArrow=none;startFill=0;endArrow=classic;endFill=1;labelBackgroundColor=none;strokeColor=#182E3E;fontColor=default;" edge="1" parent="1" source="6G9ahUbNiyrmslpl5jez-176" target="6G9ahUbNiyrmslpl5jez-168">
          <mxGeometry width="80" relative="1" as="geometry">
            <mxPoint x="623" y="1600" as="sourcePoint" />
            <mxPoint x="528" y="1600" as="targetPoint" />
            <Array as="points">
              <mxPoint x="578" y="1600" />
            </Array>
          </mxGeometry>
        </mxCell>
        <mxCell id="6G9ahUbNiyrmslpl5jez-182" value="returns" style="edgeLabel;html=1;align=center;verticalAlign=middle;resizable=0;points=[];fontSize=10;labelBackgroundColor=none;fontColor=#1A1A1A;" vertex="1" connectable="0" parent="6G9ahUbNiyrmslpl5jez-181">
          <mxGeometry x="-0.3614" y="2" relative="1" as="geometry">
            <mxPoint x="-20" y="-12" as="offset" />
          </mxGeometry>
        </mxCell>
        <mxCell id="6G9ahUbNiyrmslpl5jez-183" value="" style="edgeStyle=none;orthogonalLoop=1;jettySize=auto;html=1;rounded=0;dashed=1;startArrow=none;startFill=0;endArrow=classic;endFill=1;labelBackgroundColor=none;strokeColor=#182E3E;fontColor=default;" edge="1" parent="1" source="6G9ahUbNiyrmslpl5jez-168" target="6G9ahUbNiyrmslpl5jez-169">
          <mxGeometry width="80" relative="1" as="geometry">
            <mxPoint x="633" y="1610" as="sourcePoint" />
            <mxPoint x="523" y="1610" as="targetPoint" />
            <Array as="points">
              <mxPoint x="468" y="1600" />
            </Array>
          </mxGeometry>
        </mxCell>
        <mxCell id="6G9ahUbNiyrmslpl5jez-184" value="returns" style="edgeLabel;html=1;align=center;verticalAlign=middle;resizable=0;points=[];fontSize=10;labelBackgroundColor=none;fontColor=#1A1A1A;" vertex="1" connectable="0" parent="6G9ahUbNiyrmslpl5jez-183">
          <mxGeometry x="-0.3614" y="2" relative="1" as="geometry">
            <mxPoint x="-20" y="-12" as="offset" />
          </mxGeometry>
        </mxCell>
        <mxCell id="6G9ahUbNiyrmslpl5jez-185" value="" style="edgeStyle=none;orthogonalLoop=1;jettySize=auto;html=1;rounded=0;labelBackgroundColor=none;strokeColor=#182E3E;fontColor=default;" edge="1" parent="1" source="6G9ahUbNiyrmslpl5jez-120" target="6G9ahUbNiyrmslpl5jez-169">
          <mxGeometry width="80" relative="1" as="geometry">
            <mxPoint x="420" y="1485" as="sourcePoint" />
            <mxPoint x="445" y="1505" as="targetPoint" />
            <Array as="points">
              <mxPoint x="480" y="1480" />
              <mxPoint x="480" y="1490" />
            </Array>
          </mxGeometry>
        </mxCell>
        <mxCell id="6G9ahUbNiyrmslpl5jez-186" value="proceed_if_needed" style="edgeLabel;html=1;align=center;verticalAlign=middle;resizable=0;points=[];fontSize=10;labelBackgroundColor=none;fontColor=#1A1A1A;" vertex="1" connectable="0" parent="6G9ahUbNiyrmslpl5jez-185">
          <mxGeometry x="-0.5418" y="4" relative="1" as="geometry">
            <mxPoint x="7" y="-6" as="offset" />
          </mxGeometry>
        </mxCell>
        <mxCell id="6G9ahUbNiyrmslpl5jez-187" value="" style="edgeStyle=none;orthogonalLoop=1;jettySize=auto;html=1;rounded=0;dashed=1;startArrow=none;startFill=0;endArrow=classic;endFill=1;labelBackgroundColor=none;strokeColor=#182E3E;fontColor=default;" edge="1" parent="1" source="6G9ahUbNiyrmslpl5jez-169" target="6G9ahUbNiyrmslpl5jez-120">
          <mxGeometry width="80" relative="1" as="geometry">
            <mxPoint x="400" y="1420" as="sourcePoint" />
            <mxPoint x="385" y="1420" as="targetPoint" />
            <Array as="points">
              <mxPoint x="390" y="1610" />
            </Array>
          </mxGeometry>
        </mxCell>
        <mxCell id="6G9ahUbNiyrmslpl5jez-188" value="returns" style="edgeLabel;html=1;align=center;verticalAlign=middle;resizable=0;points=[];fontSize=10;labelBackgroundColor=none;fontColor=#1A1A1A;" vertex="1" connectable="0" parent="6G9ahUbNiyrmslpl5jez-187">
          <mxGeometry x="-0.3614" y="2" relative="1" as="geometry">
            <mxPoint x="-3" y="-12" as="offset" />
          </mxGeometry>
        </mxCell>
        <mxCell id="6G9ahUbNiyrmslpl5jez-189" value="" style="html=1;points=[];perimeter=orthogonalPerimeter;outlineConnect=0;targetShapes=umlLifeline;portConstraint=eastwest;newEdgeStyle={&quot;edgeStyle&quot;:&quot;elbowEdgeStyle&quot;,&quot;elbow&quot;:&quot;vertical&quot;,&quot;curved&quot;:0,&quot;rounded&quot;:0};labelBackgroundColor=none;fillColor=#F5AB50;strokeColor=#909090;fontColor=#1A1A1A;" vertex="1" parent="1">
          <mxGeometry x="398" y="1680" width="10" height="50" as="geometry" />
        </mxCell>
        <mxCell id="6G9ahUbNiyrmslpl5jez-190" value="" style="edgeStyle=none;orthogonalLoop=1;jettySize=auto;html=1;rounded=0;labelBackgroundColor=none;strokeColor=#182E3E;fontColor=default;" edge="1" parent="1" source="6G9ahUbNiyrmslpl5jez-120" target="6G9ahUbNiyrmslpl5jez-189">
          <mxGeometry width="80" relative="1" as="geometry">
            <mxPoint x="400" y="1660" as="sourcePoint" />
            <mxPoint x="433" y="1670" as="targetPoint" />
            <Array as="points">
              <mxPoint x="470" y="1670" />
              <mxPoint x="470" y="1680" />
            </Array>
          </mxGeometry>
        </mxCell>
        <mxCell id="6G9ahUbNiyrmslpl5jez-191" value="finish_if_possible" style="edgeLabel;html=1;align=center;verticalAlign=middle;resizable=0;points=[];fontSize=10;labelBackgroundColor=none;fontColor=#1A1A1A;" vertex="1" connectable="0" parent="6G9ahUbNiyrmslpl5jez-190">
          <mxGeometry x="-0.5418" y="4" relative="1" as="geometry">
            <mxPoint x="7" y="-6" as="offset" />
          </mxGeometry>
        </mxCell>
        <mxCell id="6G9ahUbNiyrmslpl5jez-192" value="" style="edgeStyle=none;orthogonalLoop=1;jettySize=auto;html=1;rounded=0;labelBackgroundColor=none;fontColor=default;strokeColor=#182E3E;" edge="1" parent="1" source="6G9ahUbNiyrmslpl5jez-189" target="6G9ahUbNiyrmslpl5jez-189">
          <mxGeometry width="80" relative="1" as="geometry">
            <mxPoint x="410" y="1705" as="sourcePoint" />
            <mxPoint x="410" y="1720" as="targetPoint" />
            <Array as="points">
              <mxPoint x="480" y="1705" />
              <mxPoint x="480" y="1720" />
            </Array>
          </mxGeometry>
        </mxCell>
        <mxCell id="6G9ahUbNiyrmslpl5jez-193" value="&lt;span style=&quot;font-size: 10px;&quot;&gt;get output if finished, otherwise None&lt;/span&gt;" style="edgeLabel;html=1;align=center;verticalAlign=middle;resizable=0;points=[];labelBackgroundColor=none;fontColor=#1A1A1A;fontSize=10;" vertex="1" connectable="0" parent="6G9ahUbNiyrmslpl5jez-192">
          <mxGeometry x="-0.6935" y="-1" relative="1" as="geometry">
            <mxPoint x="58" y="-10" as="offset" />
          </mxGeometry>
        </mxCell>
        <mxCell id="6G9ahUbNiyrmslpl5jez-194" value="" style="edgeStyle=none;orthogonalLoop=1;jettySize=auto;html=1;rounded=0;dashed=1;startArrow=none;startFill=0;endArrow=classic;endFill=1;labelBackgroundColor=none;strokeColor=#182E3E;fontColor=default;" edge="1" parent="1" source="6G9ahUbNiyrmslpl5jez-189" target="6G9ahUbNiyrmslpl5jez-120">
          <mxGeometry width="80" relative="1" as="geometry">
            <mxPoint x="408" y="1620" as="sourcePoint" />
            <mxPoint x="385" y="1620" as="targetPoint" />
            <Array as="points">
              <mxPoint x="390" y="1730" />
              <mxPoint x="380" y="1730" />
            </Array>
          </mxGeometry>
        </mxCell>
        <mxCell id="6G9ahUbNiyrmslpl5jez-195" value="returns" style="edgeLabel;html=1;align=center;verticalAlign=middle;resizable=0;points=[];fontSize=10;labelBackgroundColor=none;fontColor=#1A1A1A;" vertex="1" connectable="0" parent="6G9ahUbNiyrmslpl5jez-194">
          <mxGeometry x="-0.3614" y="2" relative="1" as="geometry">
            <mxPoint x="-3" y="-12" as="offset" />
          </mxGeometry>
        </mxCell>
        <mxCell id="6G9ahUbNiyrmslpl5jez-196" value="" style="edgeStyle=none;orthogonalLoop=1;jettySize=auto;html=1;rounded=0;dashed=1;labelBackgroundColor=none;strokeColor=#182E3E;fontColor=default;" edge="1" parent="1" source="6G9ahUbNiyrmslpl5jez-120" target="6G9ahUbNiyrmslpl5jez-113">
          <mxGeometry width="80" relative="1" as="geometry">
            <mxPoint x="280" y="1800" as="sourcePoint" />
            <mxPoint x="360" y="1800" as="targetPoint" />
            <Array as="points">
              <mxPoint x="270" y="1800" />
            </Array>
          </mxGeometry>
        </mxCell>
        <mxCell id="6G9ahUbNiyrmslpl5jez-197" value="returns" style="edgeLabel;html=1;align=center;verticalAlign=middle;resizable=0;points=[];labelBackgroundColor=none;fontColor=#1A1A1A;" vertex="1" connectable="0" parent="6G9ahUbNiyrmslpl5jez-196">
          <mxGeometry x="-0.1678" y="-4" relative="1" as="geometry">
            <mxPoint x="-5" as="offset" />
          </mxGeometry>
        </mxCell>
        <mxCell id="6G9ahUbNiyrmslpl5jez-200" value="Signing" style="text;html=1;strokeColor=none;fillColor=none;align=center;verticalAlign=middle;whiteSpace=wrap;rounded=0;fontSize=16;labelBackgroundColor=none;fontColor=#1A1A1A;" vertex="1" parent="1">
          <mxGeometry y="920" width="60" height="30" as="geometry" />
        </mxCell>
        <mxCell id="6G9ahUbNiyrmslpl5jez-203" value="" style="edgeStyle=none;orthogonalLoop=1;jettySize=auto;html=1;rounded=0;labelBackgroundColor=none;strokeColor=#182E3E;fontColor=default;" edge="1" parent="1" source="6G9ahUbNiyrmslpl5jez-113" target="6G9ahUbNiyrmslpl5jez-201">
          <mxGeometry width="80" relative="1" as="geometry">
            <mxPoint x="290" y="1840" as="sourcePoint" />
            <mxPoint x="385" y="1840" as="targetPoint" />
            <Array as="points">
              <mxPoint x="350" y="1910" />
            </Array>
          </mxGeometry>
        </mxCell>
        <mxCell id="6G9ahUbNiyrmslpl5jez-204" value="SignManual::new" style="edgeLabel;html=1;align=center;verticalAlign=middle;resizable=0;points=[];fontSize=10;labelBackgroundColor=none;fontColor=#1A1A1A;" vertex="1" connectable="0" parent="6G9ahUbNiyrmslpl5jez-203">
          <mxGeometry x="-0.1474" y="1" relative="1" as="geometry">
            <mxPoint x="-77" y="-7" as="offset" />
          </mxGeometry>
        </mxCell>
        <mxCell id="6G9ahUbNiyrmslpl5jez-207" value="" style="edgeStyle=none;orthogonalLoop=1;jettySize=auto;html=1;rounded=0;labelBackgroundColor=none;fontColor=default;strokeColor=#182E3E;" edge="1" parent="1">
          <mxGeometry width="80" relative="1" as="geometry">
            <mxPoint x="220" y="1830" as="sourcePoint" />
            <mxPoint x="220" y="1850" as="targetPoint" />
            <Array as="points">
              <mxPoint x="300" y="1830" />
              <mxPoint x="300" y="1850" />
            </Array>
          </mxGeometry>
        </mxCell>
        <mxCell id="6G9ahUbNiyrmslpl5jez-208" value="&lt;span style=&quot;font-size: 10px;&quot;&gt;creates incoming stream&lt;/span&gt;" style="edgeLabel;html=1;align=center;verticalAlign=middle;resizable=0;points=[];labelBackgroundColor=none;fontColor=#1A1A1A;fontSize=10;" vertex="1" connectable="0" parent="6G9ahUbNiyrmslpl5jez-207">
          <mxGeometry x="-0.6935" y="-1" relative="1" as="geometry">
            <mxPoint x="33" y="-11" as="offset" />
          </mxGeometry>
        </mxCell>
        <mxCell id="6G9ahUbNiyrmslpl5jez-209" value="" style="edgeStyle=none;orthogonalLoop=1;jettySize=auto;html=1;rounded=0;labelBackgroundColor=none;fontColor=default;strokeColor=#182E3E;" edge="1" parent="1">
          <mxGeometry width="80" relative="1" as="geometry">
            <mxPoint x="220" y="1870" as="sourcePoint" />
            <mxPoint x="220" y="1890" as="targetPoint" />
            <Array as="points">
              <mxPoint x="300" y="1870" />
              <mxPoint x="300" y="1890" />
            </Array>
          </mxGeometry>
        </mxCell>
        <mxCell id="6G9ahUbNiyrmslpl5jez-210" value="&lt;span style=&quot;font-size: 10px;&quot;&gt;creates outgoing sink&lt;/span&gt;" style="edgeLabel;html=1;align=center;verticalAlign=middle;resizable=0;points=[];labelBackgroundColor=none;fontColor=#1A1A1A;fontSize=10;" vertex="1" connectable="0" parent="6G9ahUbNiyrmslpl5jez-209">
          <mxGeometry x="-0.6935" y="-1" relative="1" as="geometry">
            <mxPoint x="22" y="-11" as="offset" />
          </mxGeometry>
        </mxCell>
        <mxCell id="6G9ahUbNiyrmslpl5jez-211" value="" style="edgeStyle=none;orthogonalLoop=1;jettySize=auto;html=1;rounded=0;dashed=1;labelBackgroundColor=none;strokeColor=#182E3E;fontColor=default;" edge="1" parent="1">
          <mxGeometry width="80" relative="1" as="geometry">
            <mxPoint x="495" y="1926" as="sourcePoint" />
            <mxPoint x="220" y="1926" as="targetPoint" />
            <Array as="points">
              <mxPoint x="350" y="1926" />
            </Array>
          </mxGeometry>
        </mxCell>
        <mxCell id="6G9ahUbNiyrmslpl5jez-212" value="returns" style="edgeLabel;html=1;align=center;verticalAlign=middle;resizable=0;points=[];labelBackgroundColor=none;fontColor=#1A1A1A;" vertex="1" connectable="0" parent="6G9ahUbNiyrmslpl5jez-211">
          <mxGeometry x="-0.1678" y="-4" relative="1" as="geometry">
            <mxPoint x="-5" as="offset" />
          </mxGeometry>
        </mxCell>
        <mxCell id="6G9ahUbNiyrmslpl5jez-220" value="" style="edgeStyle=none;orthogonalLoop=1;jettySize=auto;html=1;rounded=0;labelBackgroundColor=none;strokeColor=#182E3E;fontColor=default;" edge="1" parent="1" source="6G9ahUbNiyrmslpl5jez-201" target="6G9ahUbNiyrmslpl5jez-219">
          <mxGeometry width="80" relative="1" as="geometry">
            <mxPoint x="565" y="1920" as="sourcePoint" />
            <mxPoint x="840" y="1920" as="targetPoint" />
            <Array as="points">
              <mxPoint x="560" y="1910" />
            </Array>
          </mxGeometry>
        </mxCell>
        <mxCell id="6G9ahUbNiyrmslpl5jez-221" value="Round7::new" style="edgeLabel;html=1;align=center;verticalAlign=middle;resizable=0;points=[];fontSize=10;labelBackgroundColor=none;fontColor=#1A1A1A;" vertex="1" connectable="0" parent="6G9ahUbNiyrmslpl5jez-220">
          <mxGeometry x="-0.1474" y="1" relative="1" as="geometry">
            <mxPoint x="8" y="-9" as="offset" />
          </mxGeometry>
        </mxCell>
        <mxCell id="6G9ahUbNiyrmslpl5jez-222" value="" style="edgeStyle=none;orthogonalLoop=1;jettySize=auto;html=1;rounded=0;dashed=1;labelBackgroundColor=none;strokeColor=#182E3E;fontColor=default;" edge="1" parent="1">
          <mxGeometry width="80" relative="1" as="geometry">
            <mxPoint x="615" y="1924.5" as="sourcePoint" />
            <mxPoint x="505" y="1924.5" as="targetPoint" />
            <Array as="points" />
          </mxGeometry>
        </mxCell>
        <mxCell id="6G9ahUbNiyrmslpl5jez-223" value="returns" style="edgeLabel;html=1;align=center;verticalAlign=middle;resizable=0;points=[];labelBackgroundColor=none;fontColor=#1A1A1A;" vertex="1" connectable="0" parent="6G9ahUbNiyrmslpl5jez-222">
          <mxGeometry x="-0.1678" y="-4" relative="1" as="geometry">
            <mxPoint x="-7" y="-3" as="offset" />
          </mxGeometry>
        </mxCell>
        <mxCell id="6G9ahUbNiyrmslpl5jez-226" value="" style="edgeStyle=none;orthogonalLoop=1;jettySize=auto;html=1;rounded=0;labelBackgroundColor=none;strokeColor=#182E3E;fontColor=default;" edge="1" parent="1">
          <mxGeometry width="80" relative="1" as="geometry">
            <mxPoint x="220" y="2015" as="sourcePoint" />
            <mxPoint x="495" y="2015" as="targetPoint" />
            <Array as="points">
              <mxPoint x="362.5" y="2015" />
            </Array>
          </mxGeometry>
        </mxCell>
        <mxCell id="6G9ahUbNiyrmslpl5jez-227" value="SignManual::complete" style="edgeLabel;html=1;align=center;verticalAlign=middle;resizable=0;points=[];fontSize=10;labelBackgroundColor=none;fontColor=#1A1A1A;" vertex="1" connectable="0" parent="6G9ahUbNiyrmslpl5jez-226">
          <mxGeometry x="-0.1474" y="1" relative="1" as="geometry">
            <mxPoint x="-67" y="-7" as="offset" />
          </mxGeometry>
        </mxCell>
        <mxCell id="6G9ahUbNiyrmslpl5jez-229" value="" style="edgeStyle=none;orthogonalLoop=1;jettySize=auto;html=1;rounded=0;labelBackgroundColor=none;strokeColor=#182E3E;fontColor=default;" edge="1" parent="1">
          <mxGeometry width="80" relative="1" as="geometry">
            <mxPoint x="505" y="2015.5" as="sourcePoint" />
            <mxPoint x="615" y="2015.5" as="targetPoint" />
            <Array as="points" />
          </mxGeometry>
        </mxCell>
        <mxCell id="6G9ahUbNiyrmslpl5jez-230" value="Round7::proceed_manual" style="edgeLabel;html=1;align=center;verticalAlign=middle;resizable=0;points=[];fontSize=10;labelBackgroundColor=none;fontColor=#1A1A1A;" vertex="1" connectable="0" parent="6G9ahUbNiyrmslpl5jez-229">
          <mxGeometry x="-0.1474" y="1" relative="1" as="geometry">
            <mxPoint x="8" y="-12" as="offset" />
          </mxGeometry>
        </mxCell>
        <mxCell id="6G9ahUbNiyrmslpl5jez-231" value="" style="edgeStyle=none;orthogonalLoop=1;jettySize=auto;html=1;rounded=0;dashed=1;labelBackgroundColor=none;strokeColor=#182E3E;fontColor=default;" edge="1" parent="1">
          <mxGeometry width="80" relative="1" as="geometry">
            <mxPoint x="615" y="2031.0000000000005" as="sourcePoint" />
            <mxPoint x="505" y="2031.0000000000005" as="targetPoint" />
            <Array as="points" />
          </mxGeometry>
        </mxCell>
        <mxCell id="6G9ahUbNiyrmslpl5jez-232" value="returns" style="edgeLabel;html=1;align=center;verticalAlign=middle;resizable=0;points=[];labelBackgroundColor=none;fontColor=#1A1A1A;" vertex="1" connectable="0" parent="6G9ahUbNiyrmslpl5jez-231">
          <mxGeometry x="-0.1678" y="-4" relative="1" as="geometry">
            <mxPoint x="-7" y="-3" as="offset" />
          </mxGeometry>
        </mxCell>
        <mxCell id="6G9ahUbNiyrmslpl5jez-233" value="" style="edgeStyle=none;orthogonalLoop=1;jettySize=auto;html=1;rounded=0;dashed=1;labelBackgroundColor=none;strokeColor=#182E3E;fontColor=default;" edge="1" parent="1">
          <mxGeometry width="80" relative="1" as="geometry">
            <mxPoint x="495" y="2032.5" as="sourcePoint" />
            <mxPoint x="220" y="2032.5" as="targetPoint" />
            <Array as="points" />
          </mxGeometry>
        </mxCell>
        <mxCell id="6G9ahUbNiyrmslpl5jez-234" value="returns" style="edgeLabel;html=1;align=center;verticalAlign=middle;resizable=0;points=[];labelBackgroundColor=none;fontColor=#1A1A1A;" vertex="1" connectable="0" parent="6G9ahUbNiyrmslpl5jez-233">
          <mxGeometry x="-0.1678" y="-4" relative="1" as="geometry">
            <mxPoint x="-7" y="-3" as="offset" />
          </mxGeometry>
        </mxCell>
        <mxCell id="6G9ahUbNiyrmslpl5jez-235" value="" style="edgeStyle=none;orthogonalLoop=1;jettySize=auto;html=1;rounded=0;dashed=1;labelBackgroundColor=none;strokeColor=#182E3E;fontColor=default;" edge="1" parent="1">
          <mxGeometry width="80" relative="1" as="geometry">
            <mxPoint x="210" y="2045.0299999999997" as="sourcePoint" />
            <mxPoint x="99.81034482758616" y="2045.0299999999997" as="targetPoint" />
            <Array as="points">
              <mxPoint x="160" y="2045.03" />
            </Array>
          </mxGeometry>
        </mxCell>
        <mxCell id="6G9ahUbNiyrmslpl5jez-236" value="returns" style="edgeLabel;html=1;align=center;verticalAlign=middle;resizable=0;points=[];labelBackgroundColor=none;fontColor=#1A1A1A;" vertex="1" connectable="0" parent="6G9ahUbNiyrmslpl5jez-235">
          <mxGeometry x="-0.1678" y="-4" relative="1" as="geometry">
            <mxPoint x="-5" as="offset" />
          </mxGeometry>
        </mxCell>
      </root>
    </mxGraphModel>
  </diagram>
</mxfile>
